<svg width="108" height="107" viewBox="0 0 108 107" fill="none" xmlns="http://www.w3.org/2000/svg">
<g id="Group" opacity="0.8">
<g id="Group_2">
<g id="Group_3">
<path id="Vector" d="M0.618398 15.9845L32.2775 16.0586C32.2775 16.0586 34.1999 3.2866 24.2846 6.62128C24.2846 6.62128 23.3713 1.07788 18.011 0.318781C15.6341 -0.0176652 13.223 0.708715 11.4967 2.65167C10.5236 3.7468 9.72028 5.23774 9.64057 7.20481C9.64057 7.20481 0.205392 2.53232 0.618398 15.9845Z" fill="white"/>
<path id="Vector_2" d="M32.3678 16.1636L0.516612 16.0891L0.513466 15.9878C0.37293 11.4061 1.35332 8.40769 3.42738 7.07596C5.78711 5.56006 8.84974 6.74371 9.54361 7.04555C9.6445 5.37024 10.2748 3.86923 11.4184 2.58197C13.0746 0.717671 15.4834 -0.14484 18.0257 0.214889C22.9585 0.913372 24.1883 5.66473 24.3642 6.48445C26.918 5.64921 28.9167 5.81576 30.3049 6.98031C31.89 8.30953 32.3693 10.7158 32.4924 12.5002C32.625 14.4228 32.3838 16.0579 32.3813 16.074L32.3678 16.1636ZM0.720074 15.8798L32.186 15.9536C32.2867 15.1679 32.9138 9.44157 30.17 7.14077C28.8209 6.00978 26.8523 5.86861 24.3181 6.72064L24.2013 6.76007L24.1811 6.63841C24.1721 6.58367 23.216 1.16193 17.9963 0.422756C15.5248 0.0726754 13.1837 0.910225 11.5751 2.72104C10.4294 4.01082 9.81356 5.52063 9.74518 7.20894L9.73868 7.37025L9.59395 7.29872C9.55955 7.28173 6.10238 5.60621 3.5398 7.25278C1.54777 8.53271 0.599255 11.4347 0.720074 15.8798Z" fill="black"/>
</g>
<g id="Group_4">
<path id="Vector_3" d="M59.8906 17.0811L82.0673 17.1329C82.0673 17.1329 83.4139 8.18645 76.4683 10.5223C76.4683 10.5223 75.8286 6.63909 72.0737 6.10757C70.4087 5.8718 68.7198 6.38067 67.5105 7.74156C66.8288 8.50863 66.2661 9.553 66.2103 10.9309C66.2103 10.9309 59.6013 7.65807 59.8906 17.0811Z" fill="white"/>
<path id="Vector_4" d="M82.1574 17.2377L59.7886 17.1855L59.7854 17.0841C59.6864 13.8629 60.378 11.7534 61.8408 10.814C63.4859 9.75784 65.5524 10.5276 66.1137 10.7714C66.1934 9.60912 66.6364 8.56706 67.4318 7.67183C68.5993 6.35793 70.2952 5.74964 72.0882 6.00365C75.4996 6.48672 76.3978 9.72008 76.5471 10.3858C78.3313 9.80986 79.7302 9.93194 80.7053 10.7498C81.5909 11.4923 82.1247 12.8368 82.2487 14.6382C82.3416 15.9884 82.1723 17.1368 82.1704 17.1483L82.1574 17.2377ZM59.9925 16.9761L81.9754 17.0275C82.0549 16.3863 82.4511 12.4867 80.5706 10.91C79.6345 10.1253 78.2656 10.0284 76.5016 10.6214L76.3848 10.6608L76.3646 10.5392C76.3583 10.5012 75.6913 6.72563 72.0588 6.21131C70.3378 5.96736 68.7084 6.55069 67.5887 7.81111C66.791 8.70886 66.3623 9.75994 66.3149 10.9352L66.3084 11.0963L66.1636 11.0248C66.1395 11.0128 63.7334 9.84678 61.9534 10.9912C60.5726 11.8785 59.9134 13.8919 59.9925 16.9761Z" fill="black"/>
</g>
<g id="Group_5">
<path id="Vector_5" d="M21.8225 40.8736L43.9992 40.9254C43.9992 40.9254 45.3458 31.9789 38.4002 34.3148C38.4002 34.3148 37.7604 30.4316 34.0056 29.9C32.3406 29.6643 30.6517 30.1731 29.4424 31.534C28.7607 32.3011 28.1979 33.3455 28.1422 34.7234C28.1422 34.7234 21.5332 31.4506 21.8225 40.8736Z" fill="white"/>
<path id="Vector_6" d="M44.0895 41.0303L21.7204 40.9781L21.7173 40.8768C21.6185 37.6556 22.31 35.5461 23.7729 34.6066C25.418 33.5507 27.4845 34.3201 28.0458 34.564C28.1255 33.4016 28.5685 32.3593 29.3639 31.4645C30.5309 30.1502 32.2274 29.5415 34.0202 29.7961C37.4317 30.2794 38.3296 33.5127 38.479 34.1785C40.2631 33.6023 41.662 33.7242 42.6374 34.5422C43.5229 35.285 44.0568 36.6295 44.1807 38.4307C44.2737 39.7811 44.1044 40.9295 44.1025 40.941L44.0895 41.0303ZM21.9243 40.7688L43.9074 40.8202C43.9869 40.179 44.3831 36.2794 42.5027 34.7027C41.5668 33.918 40.1979 33.8213 38.4337 34.4141L38.3168 34.4535L38.2967 34.3318C38.2904 34.2939 37.6236 30.5183 33.9911 30.0038C32.2698 29.7594 30.6407 30.3431 29.521 31.6038C28.7233 32.5013 28.2945 33.5524 28.2471 34.7276L28.2406 34.8889L28.0959 34.8174C28.072 34.8055 25.6657 33.6396 23.8857 34.7839C22.5047 35.6711 21.845 37.6846 21.9243 40.7688Z" fill="black"/>
</g>
<g id="Group_6">
<path id="Vector_7" d="M77.6032 41.68L107.255 41.7494C107.255 41.7494 109.056 29.7871 99.7692 32.9103C99.7692 32.9103 98.9138 27.7183 93.8933 27.0074C91.667 26.6921 89.4088 27.3726 87.792 29.1922C86.8806 30.2179 86.1282 31.6145 86.0535 33.4567C86.0535 33.4567 77.2164 29.0806 77.6032 41.68Z" fill="white"/>
<path id="Vector_8" d="M107.345 41.8545L77.5011 41.7849L77.498 41.6836C77.3663 37.3897 78.2854 34.5796 80.23 33.3308C82.4337 31.9162 85.2891 33.0092 85.9561 33.298C86.0526 31.7312 86.6433 30.3273 87.713 29.1231C89.2661 27.375 91.523 26.5666 93.9077 26.9041C98.5175 27.5566 99.6776 31.985 99.8482 32.7739C102.239 31.9938 104.111 32.1507 105.412 33.2418C106.898 34.4884 107.348 36.7439 107.463 38.4165C107.587 40.218 107.361 41.7501 107.358 41.7652L107.345 41.8545ZM77.7048 41.5756L107.164 41.6444C107.26 40.8867 107.837 35.5491 105.277 33.4023C104.015 32.3443 102.174 32.2125 99.8022 33.0098L99.6854 33.0493L99.6653 32.9276C99.6569 32.8766 98.7621 27.8031 93.8781 27.1115C91.565 26.7837 89.3751 27.5677 87.8697 29.2621C86.7979 30.4689 86.2219 31.8816 86.1577 33.4614L86.1512 33.6225L86.0065 33.551C85.9742 33.5348 82.7402 31.9669 80.3425 33.5078C78.4801 34.7046 77.5928 37.4187 77.7048 41.5756Z" fill="black"/>
</g>
</g>
<g id="Group_7">
<g id="Group_8">
<g id="Group_9">
<g id="Group_10">
<path id="Vector_9" d="M2.79639 84.1239L105.573 84.1172V84.0438L92.8302 69.1403L19.4899 68.8433L2.79639 84.0488V84.1239Z" fill="#FFB000"/>
<path id="Vector_10" d="M2.69165 84.2289V84.0025L2.72584 83.9713L19.4496 68.7383L19.4903 68.7385L92.8786 69.0359L92.9096 69.0724L105.677 84.0053V84.2222L2.69165 84.2289ZM19.5303 68.9485L2.98489 84.0193L105.408 84.0126L92.7817 69.2455L19.5303 68.9485Z" fill="black"/>
</g>
<g id="Group_11">
<path id="Vector_11" d="M105.588 84.0862H2.80078V87.5698H105.588V84.0862Z" fill="#FFB000"/>
<path id="Vector_12" d="M105.692 87.6746H2.6958V83.9812H105.692V87.6746ZM2.90556 87.4648H105.483V84.191H2.90556V87.4648Z" fill="black"/>
</g>
</g>
<g id="Group_12">
<g id="Group_13">
<g id="Group_14">
<g id="Group_15">
<path id="Vector_13" d="M30.8389 50.3665C29.2226 52.7256 27.5901 55.2424 25.5433 57.2276C25.0631 57.6932 23.8753 59.0495 23.0971 58.7271C22.1981 58.3546 22.2445 55.9237 22.2203 55.1139C22.1316 52.1289 22.7047 49.2042 22.8968 46.2413C22.9889 44.8218 22.9979 43.4966 22.3529 42.2016C21.7423 40.9756 20.7292 40.1997 19.697 39.3816C18.1553 38.1596 16.2081 40.5577 17.7568 41.7852C18.8412 42.6448 19.9225 43.328 19.9518 44.8843C19.9839 46.576 19.6295 48.2813 19.4711 49.9612C19.1808 53.0375 18.7032 56.8393 20.0383 59.7301C20.6575 61.0711 21.9154 61.8866 23.3446 61.8845C24.7609 61.8824 25.9017 61.0235 26.9384 60.1119C29.4005 57.9466 31.2914 55.0977 33.15 52.3854C34.2707 50.7485 31.9681 48.7185 30.8389 50.3665Z" fill="black"/>
</g>
<g id="Group_16">
<path id="Vector_14" d="M21.3637 40.5638C21.3608 40.5362 18.3703 38.6796 16.1931 37.3315C14.9841 36.5829 13.4203 37.2302 13.0306 38.6364C12.0395 42.2129 12.5134 44.3277 12.5134 44.3277C12.5134 44.3277 14.1408 47.6363 18.6558 46.2463C19.7025 49.9273 21.8158 46.546 22.6407 43.1107C23.3319 40.2322 21.9253 40.3967 21.3637 40.5638Z" fill="white"/>
<path id="Vector_15" d="M19.8551 47.9473C19.3251 47.9473 18.898 47.4194 18.5846 46.3773C17.8383 46.5978 17.1694 46.6894 16.5735 46.6894C13.5992 46.6898 12.4331 44.4023 12.4193 44.3741L12.4109 44.3509C12.3914 44.2634 11.9429 42.1698 12.9296 38.6086C13.1285 37.8904 13.6294 37.3274 14.3033 37.0636C14.9477 36.8114 15.6567 36.876 16.2484 37.2427C20.116 39.6377 21.1132 40.2602 21.3739 40.4522C21.6791 40.3678 22.2029 40.2955 22.5628 40.6365C22.9844 41.0361 23.0448 41.877 22.7426 43.1358C22.1867 45.451 20.9913 47.9242 19.8715 47.9473C19.8662 47.9473 19.8606 47.9473 19.8551 47.9473ZM18.7273 46.1145L18.7566 46.2175C19.0398 47.2123 19.4194 47.7374 19.8561 47.7374C19.8599 47.7374 19.8637 47.7374 19.8675 47.7371C20.7436 47.7191 21.917 45.6761 22.5387 43.086C22.8181 41.9221 22.7768 41.1276 22.4185 40.7884C22.1188 40.5042 21.6477 40.5887 21.3939 40.6642L21.2737 40.7001L21.2649 40.6204C21.0927 40.5031 20.1389 39.898 16.138 37.4204C15.6036 37.0896 14.9626 37.0304 14.3799 37.2586C13.768 37.4982 13.3131 38.0104 13.1318 38.6644C12.198 42.0352 12.5775 44.1136 12.6133 44.2921C12.6656 44.3916 13.0784 45.1374 13.9587 45.7271C15.2011 46.5587 16.8149 46.7035 18.6249 46.1459L18.7273 46.1145Z" fill="black"/>
</g>
</g>
<g id="Group_17">
<g id="Group_18">
<path id="Vector_16" d="M16.7806 0.275146H14.9492V77.8334H16.7806V0.275146Z" fill="#7AA233"/>
<path id="Vector_17" d="M16.8854 77.9381H14.8445V0.170166H16.8854V77.9381ZM15.054 77.7284H16.6754V0.379921H15.054V77.7284Z" fill="black"/>
</g>
<g id="Group_19">
<path id="Vector_18" d="M15.8713 78.7308C16.6799 78.7308 17.3354 78.3506 17.3354 77.8815C17.3354 77.4125 16.6799 77.0322 15.8713 77.0322C15.0627 77.0322 14.4072 77.4125 14.4072 77.8815C14.4072 78.3506 15.0627 78.7308 15.8713 78.7308Z" fill="black"/>
<path id="Vector_19" d="M15.8712 78.8358C14.9915 78.8358 14.3025 78.4167 14.3025 77.8816C14.3025 77.3463 14.9915 76.9272 15.8712 76.9272C16.751 76.9272 17.44 77.3463 17.44 77.8816C17.44 78.4167 16.751 78.8358 15.8712 78.8358ZM15.8712 77.1372C15.1344 77.1372 14.5122 77.4783 14.5122 77.8818C14.5122 78.2854 15.1346 78.6263 15.8712 78.6263C16.6081 78.6263 17.2302 78.2854 17.2302 77.8818C17.2302 77.4783 16.6079 77.1372 15.8712 77.1372Z" fill="black"/>
</g>
</g>
<g id="Group_20">
<g id="Group_21">
<path id="Vector_20" d="M17.4683 45.7206C14.0495 42.5246 18.1389 40.9053 18.1389 40.9053C18.1389 40.9053 15.1099 39.1373 15.8526 37.2942C16.4229 35.8787 19.1338 36.5086 19.8119 37.05C22.7774 39.4175 20.8389 43.4519 20.7839 43.7057" fill="white"/>
<path id="Vector_21" d="M17.3965 45.7974C16.3238 44.7943 15.8653 43.8343 16.0342 42.9437C16.2527 41.7913 17.4477 41.1142 17.9152 40.8902C17.2684 40.4748 15.0844 38.9199 15.7552 37.2551C15.9245 36.8352 16.2735 36.5531 16.7928 36.4165C17.8372 36.1422 19.3602 36.5552 19.8771 36.968C21.1299 37.9683 22.3314 39.9263 20.9416 43.5754C20.9116 43.6537 20.8912 43.7057 20.886 43.7279L20.6811 43.6837C20.6876 43.6533 20.7054 43.6056 20.7455 43.5008C22.0902 39.9702 20.9443 38.0885 19.7462 37.132C19.2734 36.7546 17.8148 36.3653 16.8459 36.6196C16.3943 36.7383 16.0925 36.9787 15.9496 37.3336C15.2488 39.0726 18.1621 40.7979 18.1915 40.8151L18.3775 40.9237L18.1774 41.0032C18.1604 41.0099 16.4849 41.6891 16.2399 42.9839C16.086 43.7988 16.5233 44.6938 17.5398 45.6445L17.3965 45.7974Z" fill="black"/>
</g>
<g id="Group_22">
<g id="Group_23">
<path id="Vector_22" d="M16.0459 38.5345C15.9515 39.0308 15.6835 39.4447 15.3179 39.7304C15.0181 39.4808 14.6234 39.2907 14.1745 39.1997C13.5299 39.0659 12.9114 39.1691 12.4784 39.4405C12.0868 38.9771 11.901 38.3477 12.0239 37.7117C12.2397 36.601 13.2195 36.3023 14.3295 36.5318C15.441 36.7569 16.2618 37.4239 16.0459 38.5345Z" fill="white"/>
<path id="Vector_23" d="M15.3157 39.865L15.2505 39.8106C14.9534 39.5633 14.574 39.3876 14.1534 39.3024C13.5531 39.1778 12.9627 39.2603 12.5339 39.5292L12.4569 39.5774L12.3982 39.508C11.9697 39.001 11.7956 38.339 11.9208 37.6917C12.0112 37.2271 12.2313 36.8753 12.5755 36.6463C13.0136 36.3547 13.6278 36.2798 14.3508 36.429C15.6828 36.6987 16.3552 37.4933 16.149 38.5544C16.0538 39.0541 15.7816 39.5008 15.3824 39.8127L15.3157 39.865ZM13.6116 39.036C13.8027 39.036 13.9989 39.0562 14.1956 39.0971C14.6187 39.1826 15.0044 39.3544 15.3172 39.5952C15.6414 39.3181 15.8627 38.9372 15.9429 38.5148V38.5144C16.1241 37.5814 15.5131 36.8785 14.3085 36.6345C13.6408 36.4963 13.0816 36.5611 12.6917 36.8212C12.3959 37.0182 12.2059 37.3244 12.1268 37.732C12.0192 38.2876 12.1564 38.8556 12.5029 39.3041C12.8198 39.1277 13.2041 39.036 13.6116 39.036Z" fill="black"/>
</g>
<g id="Group_24">
<path id="Vector_24" d="M15.8865 41.2574C15.7327 42.1455 14.6435 42.6374 13.4535 42.3561C12.2636 42.0746 11.4237 41.1267 11.5775 40.2384C11.7312 39.3503 12.8205 38.8585 14.0104 39.1397C15.2004 39.4212 16.0402 40.3693 15.8865 41.2574Z" fill="white"/>
<path id="Vector_25" d="M14.1229 42.5411C13.8977 42.5411 13.6644 42.5139 13.4293 42.4583C12.1884 42.1648 11.3112 41.161 11.4744 40.2208C11.5394 39.8456 11.7571 39.5261 12.1041 39.2971C12.6112 38.9621 13.3148 38.8677 14.0346 39.0382C15.2758 39.3315 16.1529 40.3354 15.9898 41.2755C15.9247 41.6507 15.707 41.9702 15.3599 42.1994C15.0184 42.4247 14.5878 42.5411 14.1229 42.5411ZM13.3487 39.1664C12.9217 39.1664 12.5236 39.2711 12.2194 39.4718C11.922 39.6681 11.7355 39.9396 11.6808 40.2563C11.5365 41.0894 12.3425 41.9855 13.4775 42.254C14.1315 42.4084 14.7921 42.3228 15.2443 42.0239C15.5419 41.8276 15.7284 41.5561 15.7831 41.2394C15.9275 40.4063 15.1214 39.5102 13.9862 39.2419C13.772 39.1914 13.557 39.1664 13.3487 39.1664Z" fill="black"/>
</g>
<g id="Group_25">
<path id="Vector_26" d="M15.5264 44.1427C15.3726 45.0308 14.2834 45.5226 13.0934 45.2414C11.9035 44.9599 11.0636 44.012 11.2174 43.1237C11.3711 42.2356 12.4604 41.7437 13.6503 42.025C14.8403 42.3065 15.6801 43.2546 15.5264 44.1427Z" fill="white"/>
<path id="Vector_27" d="M13.763 45.4264C13.5377 45.4264 13.3043 45.3991 13.0691 45.3433C11.8282 45.0499 10.9508 44.046 11.114 43.1059C11.179 42.7306 11.3968 42.4112 11.7439 42.1821C12.2509 41.8474 12.9542 41.7526 13.6745 41.9233C14.9154 42.2167 15.7926 43.2206 15.6294 44.1607C15.5644 44.536 15.3469 44.8552 14.9999 45.0845C14.6587 45.31 14.2278 45.4264 13.763 45.4264ZM12.989 42.0519C12.562 42.0519 12.1638 42.1563 11.8595 42.3573C11.5618 42.5538 11.3754 42.825 11.3206 43.1415C11.1763 43.9747 11.9824 44.8708 13.1176 45.1393C13.7716 45.2936 14.4321 45.2081 14.8846 44.9092C15.182 44.7126 15.3683 44.4414 15.423 44.1249C15.5673 43.2917 14.7614 42.3957 13.6265 42.1272C13.4119 42.0766 13.1971 42.0519 12.989 42.0519Z" fill="black"/>
</g>
</g>
</g>
</g>
<g id="Group_26">
<g id="Group_27">
<g id="Group_28">
<path id="Vector_28" d="M80.3145 51.3784C81.9311 53.7377 83.5634 56.2544 85.6102 58.2395C86.0903 58.7051 87.2781 60.0614 88.0565 59.739C88.9555 59.3665 88.9092 56.9356 88.9333 56.1258C89.022 53.1408 88.449 50.2164 88.2568 47.2532C88.1648 45.8338 88.1557 44.5085 88.8007 43.2133C89.4113 41.9875 90.4244 41.2114 91.4566 40.3933C92.9983 39.1713 94.9455 41.5697 93.3969 42.7969C92.3127 43.6565 91.2312 44.3397 91.2018 45.896C91.1697 47.5877 91.5242 49.293 91.6826 50.9729C91.9729 54.0492 92.4505 57.851 91.1154 60.7418C90.4962 62.0828 89.2383 62.8983 87.809 62.8962C86.3928 62.8941 85.2519 62.0352 84.2153 61.1236C81.753 58.9583 79.8623 56.1094 78.0036 53.3969C76.8827 51.7606 79.1852 49.7304 80.3145 51.3784Z" fill="black"/>
</g>
<g id="Group_29">
<path id="Vector_29" d="M89.9459 41.3517C89.948 41.3238 92.8691 39.3517 94.996 37.9191C96.1771 37.1237 97.7631 37.7091 98.2036 39.0992C99.3235 42.6344 98.9266 44.7661 98.9266 44.7661C98.9266 44.7661 97.4201 48.1363 92.858 46.9241C91.9453 50.6434 89.7112 47.3474 88.7623 43.9468C87.9673 41.0975 89.379 41.2066 89.9459 41.3517Z" fill="white"/>
<path id="Vector_30" d="M91.6905 48.6716C90.574 48.6716 89.298 46.2567 88.6614 43.9752C88.3138 42.7293 88.3438 41.8867 88.7508 41.4712C89.0979 41.1163 89.624 41.1677 89.9317 41.2405C90.1846 41.0387 91.1579 40.3782 94.9377 37.8322C95.5164 37.4424 96.2235 37.3499 96.8779 37.5783C97.5596 37.8162 98.0794 38.3591 98.3036 39.0676C99.4185 42.5875 99.0459 44.6976 99.0296 44.7857L99.0222 44.8092C99.0071 44.8434 97.4493 48.1957 92.9339 47.0521C92.6556 48.1183 92.2417 48.663 91.7029 48.6714C91.6987 48.6716 91.6945 48.6716 91.6905 48.6716ZM89.5044 41.3974C89.293 41.3974 89.0664 41.4481 88.9003 41.6178C88.5549 41.971 88.5419 42.7666 88.8632 43.9188C89.5755 46.4713 90.8152 48.4619 91.6903 48.4619C91.6934 48.4619 91.6961 48.4619 91.6993 48.4619C92.1415 48.455 92.5071 47.9146 92.756 46.8992L92.7814 46.7954L92.8846 46.8229C94.7187 47.3101 96.3286 47.1002 97.541 46.2154C98.3961 45.5914 98.777 44.8359 98.8253 44.735C98.8544 44.5554 99.1573 42.4583 98.1035 39.1312C97.8992 38.4862 97.4273 37.9924 96.8087 37.7766C96.2166 37.5702 95.5777 37.6537 95.0547 38.0065C91.1453 40.6395 90.2151 41.2811 90.0473 41.4049L90.0416 41.4848L89.9202 41.4538C89.8107 41.4255 89.6617 41.3974 89.5044 41.3974Z" fill="black"/>
</g>
</g>
<g id="Group_30">
<g id="Group_31">
<path id="Vector_31" d="M94.5803 78.4424H96.4116L96.4116 0.290985H94.5803L94.5803 78.4424Z" fill="#7AA233"/>
<path id="Vector_32" d="M96.5162 78.5472H94.4751V0.186035H96.5162V78.5472ZM94.6851 78.3374H96.3067V0.39579H94.6851V78.3374Z" fill="black"/>
</g>
<g id="Group_32">
<path id="Vector_33" d="M95.4895 79.3471C96.2981 79.3471 96.9536 78.9639 96.9536 78.4913C96.9536 78.0186 96.2981 77.6355 95.4895 77.6355C94.6809 77.6355 94.0254 78.0186 94.0254 78.4913C94.0254 78.9639 94.6809 79.3471 95.4895 79.3471Z" fill="black"/>
<path id="Vector_34" d="M95.4894 79.4519C94.6097 79.4519 93.9207 79.0298 93.9207 78.4912C93.9207 77.9525 94.6097 77.5305 95.4894 77.5305C96.3691 77.5305 97.0582 77.9525 97.0582 78.4912C97.0582 79.0298 96.3691 79.4519 95.4894 79.4519ZM95.4894 77.7403C94.7525 77.7403 94.1304 78.0843 94.1304 78.4912C94.1304 78.8981 94.7528 79.2421 95.4894 79.2421C96.2261 79.2421 96.8484 78.8981 96.8484 78.4912C96.8484 78.0841 96.2263 77.7403 95.4894 77.7403Z" fill="black"/>
</g>
</g>
<g id="Group_33">
<g id="Group_34">
<path id="Vector_35" d="M94.1379 45.7822C96.1492 43.1769 93.181 41.5666 93.181 41.5666C93.181 41.5666 96.144 39.6811 95.3349 37.8684C94.7136 36.4765 92.0275 37.2121 91.3695 37.7795C88.4919 40.2615 90.575 44.217 90.6392 44.4685" fill="white"/>
<path id="Vector_36" d="M94.221 45.8465L94.055 45.7183C94.6195 44.9869 94.8326 44.2694 94.6883 43.5853C94.4332 42.3778 93.1441 41.6661 93.1311 41.659L92.9744 41.574L93.1248 41.4784C93.1537 41.4599 96.0022 39.6206 95.2393 37.9113C95.0841 37.5631 94.7751 37.3353 94.3214 37.234C93.3444 37.0154 91.8979 37.4624 91.4381 37.859C90.2755 38.8619 89.1982 40.787 90.6702 44.2626C90.7139 44.3658 90.7336 44.4128 90.7411 44.4428L90.5379 44.4944C90.5322 44.4724 90.5096 44.4214 90.477 44.3442C88.9559 40.7524 90.0856 38.7484 91.3014 37.6998C91.8042 37.2663 93.3144 36.7935 94.3671 37.029C94.8892 37.1457 95.2471 37.4135 95.431 37.8255C96.1725 39.4874 93.9711 41.1514 93.3769 41.5618C93.741 41.7943 94.6692 42.4795 94.8934 43.5415C95.0512 44.2887 94.825 45.0641 94.221 45.8465Z" fill="black"/>
</g>
<g id="Group_35">
<g id="Group_36">
<path id="Vector_37" d="M95.1868 39.1153C95.299 39.6074 95.582 40.0106 95.9576 40.2818C96.2482 40.0206 96.6356 39.8153 97.0811 39.7066C97.7202 39.5479 98.3421 39.6265 98.7845 39.8807C99.1591 39.4023 99.3219 38.7661 99.1761 38.1354C98.9202 37.034 97.9304 36.7739 96.8294 37.0465C95.7271 37.3152 94.9309 38.0139 95.1868 39.1153Z" fill="white"/>
<path id="Vector_38" d="M95.9651 40.4163L95.8965 40.3668C95.4862 40.0708 95.1978 39.6348 95.0847 39.1389C94.8404 38.0866 95.4835 37.2666 96.8049 36.9451C97.5221 36.767 98.1385 36.8184 98.587 37.0932C98.939 37.3086 99.1716 37.6515 99.2786 38.1117C99.4271 38.7538 99.2771 39.4219 98.8672 39.9454L98.811 40.0169L98.7323 39.9716C98.2942 39.7197 97.701 39.6601 97.1065 39.8084C96.6889 39.91 96.3162 40.1004 96.0278 40.3597L95.9651 40.4163ZM97.5946 37.0508C97.3666 37.0508 97.1187 37.0833 96.8548 37.1487C95.6592 37.4399 95.074 38.1661 95.289 39.0917V39.0921C95.3847 39.5112 95.6192 39.8829 95.9533 40.147C96.257 39.8938 96.6365 39.7069 97.0564 39.605C97.6676 39.4525 98.2807 39.5047 98.755 39.7457C99.0854 39.2838 99.2018 38.7106 99.074 38.1591C98.9805 37.7556 98.7798 37.4571 98.4773 37.2721C98.2373 37.1248 97.9386 37.0508 97.5946 37.0508Z" fill="black"/>
</g>
<g id="Group_37">
<path id="Vector_39" d="M95.4446 41.83C95.6305 42.7114 96.7367 43.1603 97.9158 42.8326C99.0946 42.5048 99.8996 41.5246 99.7138 40.643C99.5279 39.7616 98.4217 39.3127 97.2427 39.6404C96.0638 39.9682 95.2588 40.9486 95.4446 41.83Z" fill="white"/>
<path id="Vector_40" d="M97.146 43.0457C96.7218 43.0457 96.3267 42.9456 96.004 42.7497C95.6494 42.5343 95.4205 42.2237 95.3421 41.8518C95.1453 40.9186 95.9852 39.8811 97.2148 39.5396C97.9275 39.341 98.635 39.4077 99.1543 39.7234C99.5088 39.9388 99.7379 40.2495 99.8163 40.6214C100.013 41.5545 99.173 42.592 97.9436 42.9335C97.6737 43.0088 97.4046 43.0457 97.146 43.0457ZM98.0062 39.6391C97.7666 39.6391 97.5178 39.6728 97.2708 39.7414C96.1461 40.0542 95.3727 40.9813 95.5472 41.8084C95.6133 42.1224 95.809 42.386 96.1129 42.5706C96.5756 42.8519 97.2387 42.9117 97.8874 42.7317C99.0119 42.4189 99.7853 41.4918 99.611 40.6648C99.5449 40.3508 99.3492 40.0871 99.0453 39.9025C98.7588 39.7284 98.3952 39.6391 98.0062 39.6391Z" fill="black"/>
</g>
<g id="Group_38">
<path id="Vector_41" d="M95.909 44.6993C96.0948 45.5809 97.2011 46.0295 98.3799 45.7019C99.5587 45.3741 100.364 44.3939 100.178 43.5123C99.9921 42.6309 98.8858 42.182 97.7068 42.5099C96.528 42.8377 95.7232 43.8179 95.909 44.6993Z" fill="white"/>
<path id="Vector_42" d="M97.6105 45.9152C97.1862 45.9152 96.7908 45.8149 96.4682 45.619C96.1137 45.4036 95.8849 45.093 95.8064 44.7211C95.6097 43.7879 96.4495 42.7504 97.6789 42.409C98.3923 42.2101 99.0994 42.2777 99.6187 42.5927C99.9732 42.8081 100.202 43.1188 100.281 43.4907C100.477 44.4239 99.6374 45.4613 98.408 45.803C98.1381 45.8781 97.8689 45.9152 97.6105 45.9152ZM98.4703 42.5084C98.2308 42.5084 97.9818 42.5422 97.7349 42.6107C96.6104 42.9235 95.8373 43.8506 96.0116 44.6777C96.0776 44.9917 96.2733 45.2553 96.5771 45.4399C97.0398 45.721 97.7034 45.7816 98.3518 45.601C99.4763 45.288 100.25 44.3607 100.075 43.5341C100.009 43.2201 99.8136 42.9566 99.5096 42.772C99.2231 42.5979 98.8594 42.5084 98.4703 42.5084Z" fill="black"/>
</g>
</g>
</g>
</g>
</g>
<g id="Group_39">
<g id="Group_40">
<g id="Group_41">
<path id="Vector_43" d="M45.5085 76.4206C43.5226 77.6653 41.4959 78.9032 39.7739 80.4911C37.9807 82.1446 37.1867 84.1546 37.0166 86.5261C36.8583 88.7327 37.2415 91.1346 37.6222 93.3062C38.0421 95.701 38.9011 97.9737 39.665 100.278C40.4568 102.666 44.3425 101.645 43.5444 99.2366C42.8948 97.2771 42.1525 95.3373 41.7082 93.3199C41.2954 91.4453 41.071 89.4585 41.0167 87.5418C40.9684 85.8402 41.3317 84.446 42.6185 83.2594C44.0935 81.8994 45.8383 80.8672 47.539 79.8012C49.7087 78.4418 47.694 75.0509 45.5085 76.4206Z" fill="black"/>
<path id="Vector_44" d="M41.5857 101.742C41.4246 101.742 41.2637 101.726 41.1053 101.693C40.3567 101.539 39.8099 101.048 39.5655 100.311C39.4279 99.8957 39.2874 99.482 39.1466 99.068C38.5163 97.2133 37.8648 95.2958 37.5192 93.3245C37.1259 91.0816 36.7548 88.7084 36.9119 86.5186C37.0971 83.9388 37.9838 81.9988 39.7027 80.4139C41.3354 78.9083 43.2585 77.7051 45.1179 76.5412L45.4527 76.3316C46.6143 75.6036 47.7017 76.1624 48.2204 76.9905C48.7811 77.8853 48.7463 79.1688 47.5947 79.8906L47.0366 80.239C45.5419 81.1696 43.9966 82.132 42.6896 83.3368C41.5372 84.3994 41.0684 85.6565 41.1215 87.5393C41.1775 89.5139 41.4156 91.5051 41.8105 93.2976C42.1491 94.836 42.6714 96.3563 43.1762 97.8265C43.3338 98.2856 43.4913 98.7441 43.6438 99.2039C43.868 99.8806 43.7531 100.521 43.3199 101.008C42.9065 101.473 42.2493 101.742 41.5857 101.742ZM45.5641 76.5095L45.2291 76.7191C43.3778 77.8777 41.4632 79.0759 39.8447 80.5681C38.1677 82.1148 37.3023 84.0103 37.1213 86.5337C36.9658 88.6996 37.3346 91.0581 37.7256 93.2884C38.0685 95.2435 38.7177 97.1536 39.3453 99.0007C39.486 99.4149 39.627 99.8294 39.7646 100.245C39.9844 100.908 40.4757 101.349 41.1477 101.488C41.8879 101.641 42.6978 101.392 43.1632 100.869C43.433 100.566 43.7006 100.043 43.4447 99.2702C43.2924 98.8113 43.1351 98.3531 42.9778 97.8948C42.471 96.419 41.9471 94.893 41.6058 93.3429C41.2081 91.5378 40.9682 89.533 40.9117 87.5451C40.8574 85.6215 41.3619 84.2761 42.5474 83.1829C43.8688 81.9644 45.4227 80.9968 46.9254 80.0609L47.4831 79.7129C48.5183 79.0641 48.5478 77.9084 48.0425 77.1021C47.5775 76.36 46.6036 75.8576 45.5641 76.5095Z" fill="black"/>
</g>
<g id="Group_42">
<g id="Group_43">
<path id="Vector_45" d="M34.5798 96.1989C34.4986 96.2864 34.1429 96.6698 34.1519 97.2061C34.1607 97.7301 34.5103 98.0921 34.5852 98.1645C35.5211 99.0687 37.5707 98.196 37.5707 98.196L37.8182 99.1562C37.8182 99.1562 30.3004 98.1893 29.7787 102.311C29.257 106.432 36.1661 105.538 39.3758 104.515C42.5853 103.491 45.2636 103.305 43.8891 99.8748C43.8891 99.8748 42.9362 97.0469 42.9349 97.0432C42.9202 96.9993 43.0616 96.7784 43.0801 96.7344C43.1799 96.4961 43.2617 96.2471 43.3072 95.9925C43.3865 95.5476 43.3356 95.1027 43.0671 94.7887C43.0671 94.7887 42.9081 94.6006 42.657 94.4925C41.7966 94.1223 40.4888 95.4912 38.7302 95.901C36.7379 96.3652 35.4041 95.3104 34.5798 96.1989Z" fill="#0079D8"/>
<path id="Vector_46" d="M34.0525 105.473C32.5993 105.473 31.2674 105.226 30.464 104.558C29.8184 104.02 29.5527 103.26 29.6745 102.297C29.7819 101.449 30.1865 100.749 30.8775 100.214C32.927 98.6285 36.8427 98.9456 37.6783 99.0343L37.4986 98.3373C37.0447 98.51 35.3685 99.0669 34.5121 98.2398C34.4051 98.1366 34.0559 97.7565 34.0469 97.2078C34.0406 96.8288 34.1983 96.4552 34.5029 96.1276C34.9832 95.6101 35.6028 95.6978 36.3869 95.8087C37.0507 95.9025 37.8029 96.0091 38.7061 95.7987C39.4749 95.6195 40.1576 95.2529 40.7598 94.9297C41.5502 94.5055 42.1742 94.1697 42.6982 94.396C42.9497 94.5043 43.1147 94.6838 43.1454 94.7189C43.4101 95.0287 43.5036 95.4868 43.4103 96.0107C43.3669 96.2534 43.2905 96.5034 43.1766 96.7749C43.1705 96.7893 43.1531 96.8214 43.1309 96.86C43.1078 96.9007 43.0566 96.9907 43.0415 97.0316C43.1305 97.2955 43.9882 99.8413 43.9882 99.8413C44.415 100.906 44.4756 101.73 44.1713 102.354C43.6805 103.361 42.3458 103.749 40.6558 104.24C40.2524 104.357 39.8354 104.478 39.4075 104.614C38.0093 105.061 35.9302 105.473 34.0525 105.473ZM36.0039 99.165C34.4693 99.165 32.3111 99.3697 31.0056 100.38C30.3606 100.879 29.9826 101.533 29.8826 102.324C29.7704 103.211 30.011 103.908 30.5981 104.397C32.3757 105.875 36.9056 105.193 39.3436 104.415C39.7744 104.278 40.1927 104.156 40.5973 104.039C42.2373 103.562 43.5326 103.186 43.9829 102.262C44.2596 101.694 44.1971 100.926 43.7916 99.9138C43.7895 99.9084 42.8364 97.0801 42.8351 97.0765C42.8123 97.0077 42.85 96.9303 42.9486 96.7568C42.9646 96.7285 42.9782 96.7057 42.9832 96.6939C43.0913 96.437 43.1632 96.2014 43.2039 95.9742C43.2618 95.6483 43.2714 95.1904 42.9881 94.8577L42.9876 94.8573C42.9721 94.8395 42.8299 94.6813 42.6155 94.589C42.1845 94.4036 41.5997 94.7172 40.8593 95.1149C40.2455 95.4444 39.55 95.818 38.754 96.0034C37.813 96.2226 37.0059 96.1083 36.3579 96.0166C35.6055 95.9103 35.0625 95.8337 34.6568 96.2704V96.2706C34.3898 96.5578 34.2514 96.8808 34.257 97.2044C34.2648 97.6848 34.5928 98.0256 34.6583 98.0892C35.5332 98.9343 37.5101 98.1079 37.5298 98.0995L37.6418 98.0516L37.9584 99.2798L37.8048 99.26C37.7864 99.2577 37.0361 99.165 36.0039 99.165Z" fill="black"/>
</g>
<g id="Group_44">
<path id="Vector_47" d="M39.3748 104.516C36.2131 105.525 29.458 106.404 29.7632 102.489C31.0032 104.803 36.3996 104.025 39.1262 103.156C41.7087 102.332 43.9522 102.05 44.0051 100.183C45.0983 103.315 42.4858 103.521 39.3748 104.516Z" fill="white"/>
<path id="Vector_48" d="M34.0529 105.473C32.6292 105.473 31.3208 105.236 30.5137 104.597C29.876 104.092 29.5884 103.38 29.6585 102.481L29.6862 102.124L29.8555 102.439C31.0871 104.737 36.6119 103.847 39.0945 103.056C39.5258 102.918 39.9451 102.796 40.3503 102.679C42.3868 102.087 43.8585 101.659 43.9002 100.18L43.9163 99.6099L44.1041 100.148C44.4315 101.086 44.4479 101.818 44.1542 102.388C43.6489 103.368 42.3296 103.753 40.6593 104.239C40.2547 104.356 39.8362 104.478 39.4066 104.616C38.0155 105.06 35.9337 105.473 34.0529 105.473ZM29.8594 102.83C29.8817 103.499 30.1447 104.038 30.6439 104.433C32.4528 105.866 36.9395 105.183 39.3427 104.416C39.775 104.278 40.1947 104.156 40.6005 104.038C42.2224 103.565 43.5036 103.192 43.9677 102.292C44.1861 101.868 44.2113 101.335 44.043 100.67C43.715 101.92 42.2331 102.351 40.4088 102.881C40.0046 102.998 39.5868 103.119 39.1581 103.256C37.8754 103.665 35.8173 104.107 33.8878 104.121C33.8557 104.121 33.8234 104.121 33.7915 104.121C31.8603 104.121 30.513 103.677 29.8594 102.83Z" fill="black"/>
</g>
<g id="Group_45">
<path id="Vector_49" d="M37.8163 99.0578L37.7922 99.2664L40.6267 99.5936L40.6508 99.3851L37.8163 99.0578Z" fill="black"/>
</g>
<g id="Group_46">
<path id="Vector_50" d="M40.6193 97.6265L37.5134 98.1116L37.5458 98.3188L40.6517 97.8338L40.6193 97.6265Z" fill="black"/>
</g>
<g id="Group_47">
<path id="Vector_51" d="M30.6916 101.466C30.5603 101.858 30.5148 102.315 30.6612 102.709C30.7201 102.867 30.881 102.994 31.0586 102.938C31.2134 102.889 31.3506 102.71 31.2875 102.54C31.2592 102.464 31.2392 102.385 31.2262 102.305C31.2256 102.299 31.2254 102.297 31.2248 102.289C31.2235 102.267 31.2216 102.246 31.221 102.224C31.2193 102.18 31.2197 102.136 31.2218 102.093C31.2227 102.075 31.2239 102.057 31.2252 102.04C31.2252 102.04 31.2281 102.013 31.2294 101.999C31.2315 101.985 31.2342 101.966 31.2348 101.963C31.2386 101.94 31.2428 101.918 31.2474 101.895C31.2659 101.805 31.2902 101.716 31.3194 101.629C31.3326 101.589 31.3479 101.55 31.3622 101.511C31.338 101.578 31.3603 101.516 31.3666 101.502C31.3758 101.481 31.3852 101.459 31.3951 101.439C31.4339 101.356 31.4769 101.275 31.5241 101.197C31.5472 101.159 31.5711 101.122 31.596 101.085C31.6055 101.071 31.6395 101.026 31.6495 101.011C31.6963 100.953 31.7443 100.897 31.7966 100.845C31.9161 100.724 31.9287 100.505 31.7993 100.386C31.6711 100.267 31.4685 100.255 31.3406 100.383C31.0412 100.684 30.826 101.065 30.6916 101.466Z" fill="white"/>
</g>
</g>
</g>
<g id="Group_48">
<g id="Group_49">
<path id="Vector_52" d="M64.4252 76.4218C66.4113 77.67 68.4378 78.9113 70.1598 80.5038C71.953 82.1619 72.747 84.1776 72.9171 86.5561C73.0754 88.769 72.6922 91.1776 72.3115 93.3555C71.8916 95.7569 71.0326 98.0361 70.2689 100.347C69.4771 102.742 65.5914 101.717 66.3895 99.3026C67.0391 97.3377 67.7814 95.3922 68.2257 93.3693C68.6385 91.4895 68.8629 89.497 68.9173 87.5748C68.9653 85.8685 68.6022 84.4705 67.3154 83.2805C65.8404 81.9165 64.0956 80.8814 62.3949 79.8124C60.225 78.4486 62.2397 75.0481 64.4252 76.4218Z" fill="black"/>
<path id="Vector_53" d="M68.3408 101.812C68.0761 101.812 67.8124 101.769 67.5655 101.688C66.6342 101.38 65.8787 100.513 66.2896 99.2695C66.4419 98.8095 66.599 98.3502 66.7563 97.891C67.2616 96.4158 67.7839 94.8905 68.1231 93.3467C68.518 91.5491 68.7563 89.552 68.8121 87.5719C68.8654 85.6835 68.3964 84.4233 67.2438 83.3576C65.9381 82.15 64.3941 81.1858 62.9008 80.253L62.3389 79.901C61.1844 79.1755 61.1519 77.8865 61.7163 76.9884C62.2357 76.1621 63.3224 75.6048 64.4809 76.3327L64.8173 76.5441C66.6764 77.7108 68.5986 78.9173 70.2311 80.4267C71.9496 82.0162 72.8365 83.9614 73.0217 86.5485C73.1786 88.7455 72.8077 91.1246 72.4144 93.3733C72.069 95.3503 71.4173 97.2733 70.787 99.133C70.6464 99.5479 70.5057 99.9632 70.3681 100.379C70.0388 101.376 69.1863 101.812 68.3408 101.812ZM63.3954 76.2091C62.7544 76.2091 62.2084 76.5997 61.894 77.1002C61.3847 77.91 61.4126 79.0714 62.4503 79.7238L63.012 80.0751C64.5134 81.0131 66.066 81.9828 67.3864 83.2036C68.5717 84.3 69.0762 85.6489 69.0219 87.5776C68.9654 89.5709 68.7257 91.5814 68.3278 93.3918C67.9861 94.9471 67.4619 96.4783 66.9547 97.959C66.7976 98.4177 66.6407 98.8758 66.4887 99.3354C66.1233 100.441 66.7991 101.214 67.6314 101.489C68.5933 101.807 69.7749 101.505 70.169 100.313C70.3066 99.8967 70.4476 99.481 70.5885 99.0654C71.2161 97.2133 71.8651 95.298 72.208 93.3373C72.5988 91.1015 72.9676 88.7365 72.8124 86.5634C72.6313 84.033 71.7659 82.1317 70.0887 80.5808C68.4708 79.0849 66.5571 77.8838 64.7062 76.722L64.3697 76.5105C64.0331 76.2991 63.7033 76.2091 63.3954 76.2091Z" fill="black"/>
</g>
<g id="Group_50">
<g id="Group_51">
<path id="Vector_54" d="M74.1275 97.5578C74.2037 97.6494 74.5378 98.0519 74.4994 98.587C74.4619 99.1097 74.0927 99.4518 74.014 99.52C73.0297 100.371 71.0313 99.3872 71.0313 99.3872L70.7314 100.332C70.7314 100.332 78.2911 99.7803 78.5852 103.924C78.8793 108.068 72.0298 106.796 68.8813 105.597C65.7329 104.399 63.069 104.065 64.63 100.716C64.63 100.716 65.7371 97.9452 65.7386 97.9414C65.7558 97.8984 65.6266 97.6702 65.6106 97.6251C65.524 97.3818 65.456 97.1286 65.4248 96.8719C65.3701 96.4232 65.4456 95.9819 65.7308 95.683C65.7308 95.683 65.8999 95.5038 66.1566 95.4099C67.0361 95.0875 68.2668 96.5262 70 97.0321C71.9633 97.6052 73.3533 96.6252 74.1275 97.5578Z" fill="#0079D8"/>
<path id="Vector_55" d="M74.7853 106.865C72.7526 106.865 70.3746 106.278 68.8442 105.695C68.4243 105.535 68.0147 105.392 67.6182 105.252C65.958 104.67 64.6464 104.209 64.2118 103.176C63.9423 102.536 64.048 101.717 64.535 100.672C64.5348 100.672 65.5295 98.1824 65.6325 97.9242C65.6195 97.8827 65.5737 97.7902 65.5528 97.7483C65.5328 97.7082 65.5169 97.6751 65.5117 97.6602C65.4129 97.3827 65.3501 97.1289 65.3206 96.8847C65.256 96.3563 65.3749 95.9039 65.6549 95.6106C65.6621 95.6031 65.8435 95.4131 66.1204 95.3113C66.6548 95.1154 67.2606 95.4837 68.0264 95.9509C68.6102 96.3068 69.2717 96.7104 70.0294 96.9317C70.9191 97.1909 71.6761 97.1263 72.3446 97.0691C73.1344 97.0015 73.7575 96.948 74.2083 97.4911C74.4942 97.8357 74.6314 98.2173 74.6043 98.5948C74.5647 99.144 74.1951 99.5029 74.0827 99.5998C73.183 100.378 71.5394 99.73 71.0955 99.5328L70.8778 100.219C71.7168 100.178 75.6445 100.075 77.6036 101.771C78.2639 102.343 78.6297 103.065 78.6903 103.917C78.7589 104.885 78.4518 105.63 77.7775 106.131C77.0637 106.661 75.9847 106.865 74.7853 106.865ZM66.4302 95.4676C66.3469 95.4676 66.268 95.4804 66.1923 95.5081C65.9637 95.592 65.8083 95.7533 65.8068 95.755C65.5706 96.0023 65.472 96.3943 65.5287 96.8591C65.5568 97.0877 65.6157 97.3269 65.7092 97.5897C65.7139 97.6016 65.726 97.6253 65.7405 97.6547C65.8292 97.8332 65.8628 97.9127 65.8359 97.98C65.8347 97.9832 64.7272 100.755 64.7272 100.755C64.2643 101.748 64.1596 102.512 64.4048 103.095C64.8035 104.042 66.0763 104.489 67.6877 105.054C68.0851 105.194 68.4961 105.338 68.9185 105.499C71.3103 106.41 75.7963 107.341 77.652 105.962C78.2649 105.506 78.5437 104.823 78.4804 103.931C78.4239 103.137 78.0827 102.463 77.466 101.929C75.3779 100.121 70.7853 100.433 70.7387 100.437L70.5844 100.448L70.968 99.2392L71.0773 99.2931C71.0966 99.3023 73.0251 100.236 73.9451 99.4406C74.0141 99.381 74.3599 99.0601 74.3946 98.5793C74.4176 98.2569 74.2972 97.927 74.0466 97.6247C73.6659 97.166 73.1195 97.2132 72.3622 97.2778C71.7095 97.334 70.8975 97.4034 69.9706 97.1326C69.1861 96.9038 68.512 96.4925 67.9171 96.1298C67.3227 95.7671 66.8316 95.4676 66.4302 95.4676Z" fill="black"/>
</g>
<g id="Group_52">
<path id="Vector_56" d="M68.8823 105.599C71.9835 106.78 78.6803 108.029 78.591 104.103C77.2255 106.346 71.8801 105.272 69.2053 104.254C66.6721 103.289 64.4474 102.885 64.4973 101.017C63.2334 104.085 65.8305 104.434 68.8823 105.599Z" fill="white"/>
<path id="Vector_57" d="M74.7847 106.865C72.7486 106.865 70.3671 106.276 68.8451 105.696H68.8449C68.4235 105.536 68.0124 105.391 67.6149 105.251C65.974 104.674 64.6779 104.218 64.2273 103.211C63.9656 102.626 64.0222 101.895 64.4006 100.977L64.6175 100.45L64.6024 101.02C64.5627 102.5 66.0088 103.008 68.0098 103.711C68.408 103.851 68.8197 103.995 69.2428 104.156C71.6785 105.083 77.1455 106.275 78.5016 104.049L78.6878 103.743L78.696 104.101C78.7166 105.003 78.3902 105.698 77.7257 106.167C77.0127 106.67 75.9558 106.865 74.7847 106.865ZM68.9196 105.5C71.277 106.398 75.7194 107.327 77.6042 105.996C78.1244 105.628 78.4166 105.105 78.4755 104.439C77.7649 105.262 76.361 105.629 74.3822 105.506C72.4562 105.385 70.426 104.831 69.1679 104.352C68.7473 104.192 68.3371 104.048 67.9402 103.908C66.1474 103.279 64.6915 102.767 64.4325 101.501C64.2278 102.156 64.2238 102.69 64.4186 103.125C64.8325 104.05 66.091 104.493 67.6843 105.053C68.0833 105.193 68.4958 105.339 68.9196 105.5Z" fill="black"/>
</g>
<g id="Group_53">
<path id="Vector_58" d="M70.7393 100.24L67.8911 100.413L67.9038 100.622L70.752 100.449L70.7393 100.24Z" fill="black"/>
</g>
<g id="Group_54">
<path id="Vector_59" d="M68.0172 98.6587L67.9734 98.864L71.0479 99.5208L71.0918 99.3155L68.0172 98.6587Z" fill="black"/>
</g>
<g id="Group_55">
<path id="Vector_60" d="M77.7202 103.031C77.8297 103.43 77.8501 103.888 77.6823 104.273C77.6145 104.429 77.4471 104.546 77.2728 104.48C77.121 104.423 76.9939 104.237 77.0662 104.071C77.0987 103.996 77.1229 103.919 77.1403 103.839C77.1411 103.834 77.1415 103.832 77.1426 103.823C77.1451 103.802 77.148 103.78 77.1499 103.759C77.1539 103.715 77.156 103.671 77.1562 103.628C77.1562 103.61 77.1562 103.592 77.1558 103.574C77.1558 103.574 77.1543 103.548 77.1537 103.533C77.1524 103.519 77.1508 103.501 77.1501 103.497C77.1476 103.474 77.1447 103.452 77.1413 103.429C77.1279 103.338 77.1086 103.248 77.0841 103.159C77.0729 103.119 77.0599 103.079 77.0478 103.039C77.0683 103.107 77.0495 103.044 77.044 103.03C77.036 103.008 77.0276 102.986 77.0188 102.965C76.9846 102.88 76.946 102.797 76.9032 102.717C76.8825 102.678 76.8605 102.639 76.8376 102.601C76.829 102.586 76.7975 102.539 76.7881 102.524C76.7447 102.464 76.6998 102.405 76.6503 102.35C76.5374 102.223 76.537 102.004 76.6727 101.892C76.8072 101.78 77.0102 101.779 77.131 101.914C77.4138 102.231 77.608 102.623 77.7202 103.031Z" fill="white"/>
</g>
</g>
</g>
</g>
</g>
<g id="Group_56">
<g id="Group_57">
<g id="Group_58">
<path id="Vector_61" d="M27.6294 36.3887L37.0193 80.6125H72.6148L83.4388 35.7085L27.6294 36.3887Z" fill="#FFDE00"/>
<path id="Vector_62" d="M72.6976 80.7175H36.9344L36.9168 80.6345L27.5005 36.2856L27.6282 36.284L83.5725 35.6021L83.541 35.7331L72.6976 80.7175ZM37.1043 80.5078H72.5323L83.3053 35.8152L27.7585 36.4922L37.1043 80.5078Z" fill="black"/>
</g>
<g id="Group_59">
<g id="Group_60">
<path id="Vector_63" d="M40.0562 36.2823L39.8481 36.3069L45.0677 80.4597L45.2758 80.4351L40.0562 36.2823Z" fill="black"/>
</g>
<g id="Group_61">
<path id="Vector_64" d="M56.3073 36.0563L55.7039 80.4192L55.9136 80.422L56.517 36.0592L56.3073 36.0563Z" fill="black"/>
</g>
<g id="Group_62">
<path id="Vector_65" d="M72.2734 35.9376L66.2817 80.6204L66.4894 80.6482L72.4811 35.9654L72.2734 35.9376Z" fill="black"/>
</g>
</g>
</g>
<g id="Group_63">
<g id="Group_64">
<path id="Vector_66" d="M87.2047 36.9467C86.5641 36.1538 86.827 34.8779 86.2644 34.054C85.7505 33.3014 84.2126 32.5781 83.8772 31.5891C83.791 31.1646 83.6863 30.7621 83.5682 30.3788C83.5688 30.1548 83.5567 29.9285 83.5168 29.6976C82.7993 25.5325 77.1216 26.1007 77.1216 26.1007C77.1216 26.1007 81.1552 23.1018 78.3457 18.7561C75.5361 14.4104 68.8508 15.4791 68.8508 15.4791C71.1333 6.71077 61.0135 6.15513 61.0135 6.15513C61.205 2.13645 58.0717 1.29617 58.0717 1.29617C51.3896 -1.19215 46.9914 3.47258 46.9914 3.47258C46.9914 3.47258 53.0338 -0.261886 54.2051 5.31591C54.5313 7.36227 52.5155 8.36846 50.3259 8.82133C47.5754 9.39018 44.6241 9.40213 42.0089 10.3121C39.3555 11.2354 37.2815 12.9514 37.2706 15.3923C37.2659 16.4373 37.6238 17.484 38.2715 18.421C38.4102 18.6217 38.9106 19.4645 39.2402 19.5276C39.2341 19.5266 37.5065 19.3948 35.5214 19.6312C30.7172 20.2032 28.8699 24.8241 32.3696 27.6835C32.4034 27.7112 32.4378 27.7389 32.4726 27.7666C32.4726 27.7666 26.194 27.3416 26.5928 31.8343C26.6645 32.6419 27.0824 33.3951 27.8603 34.0873C24.778 34.0124 24.4118 39.6154 26.74 41.5298C27.8662 42.4559 29.607 41.8195 30.0856 39.6498C30.3965 38.2404 32.3411 37.7803 33.3116 37.9457C34.2612 38.1077 33.5483 39.9588 35.4786 39.5101C36.6765 39.2318 36.7785 38.3741 37.6284 40.0133C38.5113 41.7163 38.4926 44.2688 40.2942 45.5938C41.3748 46.3886 42.415 46.0523 43.4296 45.356C43.9391 45.0063 44.1765 44.694 44.3796 44.1719C44.6854 43.3855 44.5291 41.3559 45.283 40.7749C45.9183 40.2851 46.9113 40.5285 47.5911 39.9839C48.0282 39.6339 48.238 39.0937 48.3563 38.5849C50.3471 38.6925 52.4813 38.7711 54.7748 38.8173C59.8739 38.9194 64.4971 38.6893 68.4778 38.1729C68.6016 39.4069 69.024 41.051 70.8529 40.7212C72.2134 40.476 71.8582 38.2996 72.8101 38.3044C73.6684 38.3086 74.0066 40.5012 74.0714 40.8347C74.3514 42.2772 74.2952 43.9435 75.4213 45.3048C78.0108 48.4347 79.5875 44.5029 79.5854 42.9857C79.5846 42.3554 79.2542 40.1471 80.4915 40.0234C81.9808 39.8744 81.2584 42.5689 83.4027 42.4322C84.5125 42.3615 84.7288 40.5285 84.6996 38.9402C85.7241 39.5491 87.3946 40.0362 87.9261 39.0084C88.234 38.4129 87.6456 37.4923 87.2047 36.9467Z" fill="#59DAF5"/>
<path id="Vector_67" d="M77.286 46.5882C76.663 46.5882 76.0111 46.1809 75.3413 45.371C74.4553 44.3002 74.2882 43.067 74.1266 41.8742C74.0786 41.5191 74.0331 41.1835 73.9691 40.8541L73.9528 40.7652C73.5997 38.8206 73.1366 38.4103 72.8104 38.4088C72.8096 38.4088 72.8088 38.4088 72.8079 38.4088C72.4614 38.4088 72.3234 38.7585 72.1277 39.3282C71.9204 39.9312 71.6622 40.6815 70.8723 40.8241C70.2615 40.9341 69.7516 40.8384 69.3558 40.5401C68.8301 40.1437 68.5124 39.4073 68.3859 38.2903C64.3351 38.8095 59.7557 39.0221 54.7736 38.9221C52.5641 38.8776 50.4334 38.8011 48.4384 38.6941C48.2796 39.3229 48.0237 39.7722 47.6573 40.0657C47.286 40.3631 46.8365 40.4374 46.4019 40.5093C46.0076 40.5745 45.6353 40.6362 45.3479 40.8579C44.9001 41.203 44.7931 42.1464 44.6987 42.9785C44.6442 43.4599 44.5928 43.9145 44.4778 44.2098C44.261 44.7675 44.0023 45.0901 43.4897 45.4423C42.6278 46.0336 41.4786 46.5947 40.2328 45.6781C39.0242 44.7893 38.6215 43.3834 38.2322 42.0237C38.0283 41.3118 37.836 40.6398 37.536 40.0613C36.9728 38.9747 36.8214 39.0498 36.318 39.2994C36.1105 39.4024 35.8521 39.5308 35.5031 39.6118C34.2452 39.9039 34.0123 39.2464 33.8261 38.7176C33.7097 38.3874 33.6094 38.1022 33.2948 38.0487C32.3972 37.8943 30.4849 38.3295 30.1885 39.6718C29.9341 40.825 29.3067 41.6527 28.4673 41.9428C27.8454 42.1576 27.1924 42.0363 26.6741 41.6101C25.1299 40.3405 24.7934 37.604 25.4479 35.845C25.868 34.7159 26.6271 34.0656 27.602 33.9887C26.9312 33.3326 26.5573 32.6118 26.4891 31.8429C26.3907 30.735 26.6835 29.8234 27.3594 29.1333C28.7358 27.7277 31.2782 27.6344 32.168 27.6501C30.727 26.4023 30.1455 24.7204 30.6116 23.1202C31.1714 21.1966 33.0481 19.8195 35.5096 19.5265C36.9319 19.357 38.2376 19.3767 38.8671 19.4025C38.6641 19.1997 38.4558 18.8926 38.2651 18.6C38.2324 18.5499 38.2055 18.5084 38.1858 18.48C37.5142 17.5085 37.1616 16.4404 37.1662 15.3914C37.1761 13.16 38.9288 11.2725 41.975 10.2124C43.6006 9.64686 45.3794 9.42284 47.1 9.20637C48.1607 9.07276 49.2575 8.93474 50.3052 8.71827C52.2203 8.32205 54.4336 7.41297 54.102 5.332C53.8086 3.93461 53.1738 3.01547 52.2169 2.60477C50.1043 1.698 47.0773 3.54237 47.0471 3.56125L46.3688 3.98013L46.9156 3.39995C46.9603 3.35254 51.4383 -1.28576 58.109 1.1971C58.1314 1.20256 61.2588 2.08814 61.1229 6.05733C61.4485 6.08481 62.5052 6.1966 63.74 6.56892C65.1127 6.98297 66.9944 7.81297 68.165 9.41613C69.3019 10.9733 69.5796 12.9702 68.991 15.3541C70.0218 15.2293 75.8605 14.7173 78.4344 18.6984C79.9127 20.9849 79.4934 22.9004 78.8814 24.1046C78.4136 25.0248 77.7789 25.6685 77.4332 25.9773C78.6576 25.9326 82.9955 26.049 83.621 29.6788C83.6571 29.8875 83.6738 30.1051 83.6738 30.3622C83.7955 30.7584 83.8985 31.1639 83.9807 31.5675C84.1659 32.1107 84.7629 32.5852 85.3401 33.0439C85.7479 33.3678 86.133 33.6738 86.3518 33.9941C86.6339 34.4073 86.7174 34.925 86.7983 35.4255C86.8866 35.9717 86.9699 36.4877 87.2869 36.8801C87.7101 37.4037 88.3679 38.3826 88.0202 39.0553C87.8677 39.3502 87.6212 39.5484 87.2877 39.6439C86.5445 39.8563 85.5249 39.5126 84.808 39.1209C84.8214 41.2969 84.3398 42.4766 83.4108 42.5357C82.1699 42.6154 81.8186 41.7729 81.5358 41.0962C81.2956 40.5206 81.102 40.0694 80.5032 40.1265C79.5421 40.2228 79.6293 41.7844 79.6763 42.6234C79.6845 42.769 79.6912 42.8932 79.6914 42.9844C79.6927 43.9703 79.0378 46.0464 77.7812 46.4997C77.618 46.5588 77.4531 46.5882 77.286 46.5882ZM72.8075 38.1991C72.8088 38.1991 72.81 38.1991 72.8115 38.1991C73.4101 38.2022 73.8508 39.0293 74.1592 40.7279L74.1751 40.8143C74.2401 41.1497 74.2858 41.488 74.3345 41.8461C74.4922 43.0096 74.6552 44.2127 75.5028 45.2376C76.2901 46.1888 77.0326 46.5469 77.7097 46.3029C78.8585 45.8885 79.4825 43.8939 79.4813 42.9855C79.4811 42.8969 79.4743 42.777 79.4666 42.6358C79.4158 41.7267 79.3212 40.0346 80.482 39.9186C81.2373 39.84 81.4882 40.4392 81.729 41.0161C82.0128 41.6948 82.3081 42.3981 83.3968 42.3272C84.4929 42.2574 84.6181 40.1762 84.5955 38.9418L84.5919 38.7534L84.7539 38.8497C85.4897 39.2871 86.5406 39.6405 87.2294 39.4429C87.5052 39.3638 87.7083 39.2015 87.8333 38.9596C88.1374 38.3715 87.4381 37.402 87.1232 37.0127C86.7713 36.577 86.6794 36.009 86.5907 35.4597C86.5099 34.9598 86.4336 34.4877 86.1779 34.1133C85.9769 33.819 85.604 33.5226 85.209 33.2088C84.6079 32.7312 83.9864 32.2372 83.7779 31.6226C83.6927 31.2077 83.5897 30.8042 83.4681 30.4096L83.4635 30.3786C83.4641 30.1269 83.4483 29.9163 83.4135 29.7153C82.7209 25.695 77.1872 26.1998 77.1322 26.2051L76.7557 26.2428L77.059 26.0167C77.0691 26.0094 78.0598 25.2622 78.6974 24.0039C79.5475 22.3257 79.3997 20.5795 78.2578 18.8133C75.5182 14.5761 68.9335 15.5722 68.8675 15.5831L68.7089 15.6083L68.7494 15.4531C69.3705 13.0671 69.1169 11.0782 67.9953 9.54156C65.8187 6.55885 61.0554 6.26268 61.0075 6.25995L60.9035 6.25429L60.9085 6.15046C60.9862 4.52025 60.5291 3.22564 59.55 2.3023C58.8183 1.61263 58.0519 1.39952 58.0443 1.39742C52.9784 -0.488274 49.2051 1.80288 47.7378 2.95715C48.8107 2.44871 50.7524 1.75002 52.2983 2.41263C53.3224 2.85165 53.9982 3.82134 54.3076 5.29466C54.5916 7.07631 53.2215 8.32981 50.347 8.92425C49.2911 9.14261 48.1901 9.28125 47.1254 9.41529C45.4159 9.6305 43.6478 9.85305 42.0432 10.4114C39.0861 11.4405 37.3848 13.2561 37.3753 15.3931C37.3711 16.3991 37.7107 17.4254 38.3578 18.3615C38.3784 18.3911 38.4063 18.4341 38.4405 18.4863C38.5995 18.7305 39.0219 19.3793 39.26 19.425C39.2608 19.425 39.2615 19.4252 39.2617 19.4254L39.2208 19.631C39.2201 19.6308 39.2197 19.6308 39.2191 19.6305C39.2105 19.6305 37.505 19.5013 35.5341 19.7354C33.158 20.0186 31.3487 21.3382 30.8128 23.1796C30.35 24.7693 30.9417 26.3815 32.4363 27.6027L32.8019 27.894L32.4658 27.8716C32.4323 27.8695 29.0913 27.6644 27.5083 29.2814C26.8775 29.9255 26.6049 30.7815 26.6976 31.8255C26.7668 32.6085 27.1817 33.3433 27.9301 34.009L28.144 34.1993L27.8581 34.1923C26.4991 34.1619 25.8894 35.26 25.6442 35.9188C25.0147 37.6103 25.3319 40.236 26.8069 41.449C27.2673 41.8274 27.8472 41.9356 28.3983 41.7452C29.1672 41.4794 29.7449 40.7075 29.9834 39.6273C30.3121 38.1372 32.3362 37.6728 33.3296 37.8423C33.7657 37.9167 33.8968 38.2886 34.0237 38.6486C34.2064 39.1677 34.379 39.659 35.4552 39.4079C35.7804 39.3324 36.0266 39.2103 36.2244 39.1121C36.8061 38.8237 37.0903 38.7467 37.7221 39.965C38.0317 40.5624 38.2267 41.2443 38.4338 41.9663C38.8132 43.2919 39.2061 44.6629 40.3568 45.5096C41.2464 46.1634 42.1758 46.0898 43.3708 45.2699C43.85 44.9408 44.0801 44.6541 44.2823 44.1341C44.3872 43.8641 44.4374 43.4226 44.4902 42.9555C44.5892 42.0818 44.7014 41.0914 45.2195 40.692C45.5488 40.4384 45.9652 40.3694 46.3677 40.3029C46.7757 40.2354 47.1977 40.1655 47.5262 39.9023C47.871 39.6264 48.1091 39.1879 48.2549 38.5613L48.275 38.4757L48.3629 38.4806C50.3803 38.5898 52.5385 38.6679 54.7778 38.7128C59.7939 38.8134 64.3987 38.5968 68.4652 38.069L68.5723 38.0552L68.583 38.1628C68.6951 39.2785 68.9893 40.0015 69.4823 40.3732C69.8294 40.6352 70.2856 40.7182 70.8352 40.6184C71.5041 40.4978 71.7206 39.8689 71.9297 39.2606C72.1166 38.7144 72.294 38.1991 72.8075 38.1991Z" fill="black"/>
</g>
<g id="Group_65">
<g id="Group_66">
<path id="Vector_68" d="M46.6357 21.1631C42.6002 21.1631 39.2412 19.6436 39.1965 19.6228L39.2842 19.4324C39.3432 19.4594 45.2482 22.1288 50.7716 20.3333L50.8364 20.5327C49.4265 20.9913 47.9928 21.1631 46.6357 21.1631Z" fill="black"/>
</g>
<g id="Group_67">
<path id="Vector_69" d="M45.5849 30.4539C37.4886 30.4539 32.3737 27.8039 32.321 27.7762L32.419 27.5906C32.4733 27.6193 37.9274 30.4439 46.4906 30.2331L46.4958 30.4428C46.1883 30.4504 45.8842 30.4539 45.5849 30.4539Z" fill="black"/>
</g>
<g id="Group_68">
<path id="Vector_70" d="M63.1508 17.1421C61.8658 17.1421 60.8913 17.0185 60.8792 17.0171L60.906 16.809C60.9641 16.8167 66.6919 17.5274 68.7762 15.4055L68.9258 15.5526C68.0169 16.4776 66.3842 17.0049 64.0725 17.1198C63.7543 17.1356 63.4442 17.1421 63.1508 17.1421Z" fill="black"/>
</g>
<g id="Group_69">
<path id="Vector_71" d="M66.7415 29.6112C66.5364 29.6112 66.4199 29.607 66.4111 29.6068L66.4202 29.397C66.4885 29.4002 73.363 29.6491 77.0482 26.0256L77.1952 26.1752C73.9145 29.4014 68.1739 29.6112 66.7415 29.6112Z" fill="black"/>
</g>
<g id="Group_70">
<path id="Vector_72" d="M59.0924 6.52212L59.0276 6.32264C59.0723 6.30838 60.1288 5.9711 61.0228 6.05038L61.0039 6.2593C60.1542 6.18316 59.1029 6.51897 59.0924 6.52212Z" fill="black"/>
</g>
<g id="Group_71">
<path id="Vector_73" d="M35.2212 36.1926C34.7335 36.1926 30.9977 36.1259 27.8059 34.1764L27.9152 33.9973C31.2685 36.0456 35.2308 35.9826 35.2696 35.9824L35.274 36.1922C35.2717 36.1924 35.2535 36.1926 35.2212 36.1926Z" fill="black"/>
</g>
<g id="Group_72">
<path id="Vector_74" d="M73.9595 35.7946L73.9299 35.5869C82.1332 34.4167 83.4555 30.3886 83.4679 30.3479L83.6686 30.4087C83.617 30.5795 82.3096 34.6034 73.9595 35.7946Z" fill="black"/>
</g>
</g>
<g id="Group_73">
<g id="Group_74">
<path id="Vector_75" d="M35.7291 20.809C35.4353 20.5015 34.9281 20.4614 34.5556 20.6487C32.4458 21.7094 31.6853 24.0071 32.6726 25.8915C32.8484 26.2269 33.3616 26.404 33.7725 26.2802C34.191 26.1541 34.3825 25.7667 34.2061 25.4299C34.0939 25.2155 34.0528 25.1142 34.0131 24.9739C33.9561 24.7725 33.9208 24.5682 33.9062 24.3641C33.9051 24.3484 33.9036 24.28 33.9026 24.2739C33.903 24.2447 33.9034 24.2156 33.9047 24.1864C33.9091 24.0897 33.9183 23.9935 33.9317 23.8978C33.9452 23.802 33.963 23.7069 33.9854 23.6125C33.9978 23.5601 34.0123 23.5081 34.027 23.4561C34.0303 23.4439 34.0318 23.4378 34.0329 23.4332C34.0362 23.425 34.0381 23.4202 34.0425 23.4091C34.1138 23.2264 34.1954 23.0477 34.2978 22.8755C34.4247 22.6619 34.4188 22.6674 34.5908 22.4761C34.6674 22.3909 34.7492 22.3085 34.8354 22.2294C34.87 22.1978 34.9052 22.1667 34.9413 22.1361C34.9495 22.1292 35.0139 22.0784 35.0378 22.0589C35.06 22.0436 35.1003 22.0153 35.1064 22.0111C35.1567 21.9769 35.2079 21.9433 35.2605 21.9112C35.3663 21.8464 35.4766 21.7871 35.5894 21.7302C35.9607 21.5431 35.9959 21.0882 35.7291 20.809Z" fill="white"/>
</g>
<g id="Group_75">
<g id="Group_76">
<path id="Vector_76" d="M79.5022 28.5708C79.5074 28.5769 79.5241 28.5907 79.5465 28.6063C79.5369 28.5976 79.5327 28.5944 79.5264 28.5888C79.5185 28.5825 79.5101 28.5773 79.5022 28.5708Z" fill="black"/>
</g>
<g id="Group_77">
<path id="Vector_77" d="M79.7977 27.1856C79.3966 27.0312 78.8569 27.1768 78.7073 27.5011C78.5521 27.8377 78.7357 28.2159 79.165 28.3812C79.2011 28.3951 79.2363 28.4104 79.272 28.4248C79.3416 28.466 79.4115 28.5058 79.4767 28.5515C79.4853 28.5576 79.4941 28.5641 79.5025 28.5708C79.4977 28.5652 79.5069 28.5719 79.5269 28.5891C79.5434 28.6025 79.5594 28.617 79.5778 28.6271C79.5663 28.6208 79.5571 28.6136 79.5472 28.6065C79.5493 28.6084 79.5493 28.6082 79.5516 28.6103C79.6076 28.6621 79.6601 28.716 79.7093 28.7718C79.7347 28.8005 79.7582 28.8301 79.7826 28.8593C79.8184 28.9178 79.8581 28.9748 79.8916 29.0344C79.9313 29.1049 79.9669 29.1766 79.9988 29.2492C80.0122 29.2796 80.0244 29.3104 80.0368 29.3411C80.037 29.3417 80.037 29.3417 80.0372 29.3423C80.0779 29.4885 80.1158 29.6332 80.136 29.7815C80.1454 29.8503 80.1496 29.9189 80.1557 29.9877C80.1549 30.0186 80.1544 30.0494 80.1528 30.0802C80.1448 30.2266 80.1236 30.3724 80.0867 30.5148C80.0833 30.5276 80.0798 30.5406 80.0756 30.5534C80.0852 30.527 80.0886 30.5218 80.0733 30.5612C80.0672 30.5801 80.0605 30.5987 80.0571 30.6178C80.0598 30.6031 80.0642 30.5876 80.0689 30.5734C80.0674 30.5771 80.0676 30.5769 80.0659 30.5813C80.0403 30.6451 80.0106 30.7072 79.9776 30.7684C79.8107 31.0801 80.0114 31.5114 80.4353 31.6486C80.8636 31.7874 81.3467 31.667 81.5256 31.3331C82.2577 29.9655 81.6638 27.9042 79.7977 27.1856Z" fill="white"/>
</g>
<g id="Group_78">
<path id="Vector_78" d="M80.0753 30.5535C80.073 30.5599 80.0711 30.565 80.0686 30.5731C80.0709 30.5675 80.0715 30.5656 80.0732 30.5612C80.0738 30.5587 80.0745 30.556 80.0753 30.5535Z" fill="black"/>
</g>
</g>
<g id="Group_79">
<path id="Vector_79" d="M64.6136 8.15026C64.1962 7.99734 63.6934 8.14333 63.5235 8.46573C63.3521 8.79043 63.5621 9.19232 63.9812 9.34586C64.0464 9.36977 64.1112 9.3941 64.1746 9.42116C64.1979 9.43123 64.2207 9.44192 64.2436 9.45241C64.2486 9.45514 64.2444 9.45325 64.2537 9.45828C64.3642 9.52247 64.4668 9.58875 64.5708 9.65965C64.5874 9.67098 64.5981 9.6779 64.6077 9.68398C64.6123 9.68922 64.6176 9.69531 64.6279 9.70559C64.6694 9.74691 64.7141 9.78592 64.7548 9.82787C64.7955 9.86982 64.8345 9.91282 64.8716 9.95645C64.8831 9.97009 64.9104 10.0049 64.9282 10.0271C65.0516 10.2046 65.1529 10.3913 65.2336 10.5819C65.2458 10.6107 65.2626 10.6533 65.2689 10.6681C65.2825 10.7086 65.2961 10.7493 65.3085 10.79C65.3446 10.9096 65.3748 11.03 65.4004 11.151C65.4503 11.3872 65.4818 11.6251 65.5002 11.8627C65.5084 11.9682 65.5128 12.0739 65.5168 12.1792C65.5174 12.2015 65.5181 12.2319 65.5181 12.2543C65.5181 12.3103 65.5174 12.3663 65.5164 12.4223C65.5078 12.8509 65.4677 13.2769 65.4151 13.7014C65.3712 14.0544 65.6903 14.4037 66.1459 14.466C66.5882 14.5264 67.031 14.2826 67.0751 13.9279C67.3175 11.9745 67.3784 9.16337 64.6136 8.15026Z" fill="white"/>
</g>
<g id="Group_80">
<path id="Vector_80" d="M28.2853 39.4976C28.266 39.4902 28.2482 39.481 28.2293 39.473C28.1638 39.4372 28.1034 39.396 28.0443 39.3539C28.0074 39.3189 27.9728 39.2824 27.9402 39.2448C27.8981 39.1781 27.8612 39.1101 27.8316 39.0397C27.8104 38.9577 27.7961 38.875 27.7892 38.7919C27.7953 38.6502 27.815 38.51 27.8547 38.3726C27.8987 38.2195 27.8014 38.0041 27.6818 37.8791C27.5551 37.7465 27.332 37.6293 27.1241 37.6083C26.9083 37.5865 26.6773 37.6114 26.5083 37.7188L26.3583 37.833C26.2677 37.9242 26.2133 38.0287 26.1949 38.1461C26.0627 38.6042 26.102 39.0994 26.3117 39.5538C26.5439 40.0568 27.0488 40.4591 27.6527 40.693C28.0533 40.8482 28.5936 40.7011 28.7428 40.3775C28.8984 40.0404 28.7142 39.6639 28.2853 39.4976Z" fill="white"/>
</g>
<g id="Group_81">
<path id="Vector_81" d="M71.4474 38.6843C71.4623 38.5564 71.4197 38.4211 71.3177 38.3143C71.2227 38.2149 71.0555 38.127 70.8997 38.1115C70.5685 38.0782 70.2356 38.2399 70.2035 38.5147C70.1786 38.7276 70.1683 38.943 70.1146 39.1515C70.0959 39.1993 70.072 39.2452 70.0449 39.2901C70.0376 39.2981 70.0301 39.3061 70.0223 39.3136C70.0116 39.3199 70.0011 39.3264 69.99 39.3323C69.9885 39.3327 69.9871 39.3333 69.9856 39.3337C69.6835 39.4216 69.5136 39.7264 69.6607 39.971C69.8106 40.2202 70.1618 40.3561 70.485 40.2621C70.9307 40.1325 71.1973 39.8271 71.3144 39.4734C71.4002 39.215 71.4161 38.9516 71.4474 38.6843Z" fill="white"/>
</g>
<g id="Group_82">
<path id="Vector_82" d="M40.0709 41.4714C40.0577 41.4035 40.0237 41.3418 39.975 41.2843C39.9343 41.226 39.9047 41.1643 39.8775 41.102C39.8615 41.0448 39.8483 40.9875 39.845 40.9294C39.8485 40.8822 39.8431 40.8357 39.8217 40.7903C39.8076 40.7337 39.7768 40.6823 39.729 40.6358C39.6856 40.5869 39.631 40.5491 39.5656 40.5223C39.5041 40.4862 39.4353 40.4642 39.3592 40.4562C39.2161 40.4417 39.0628 40.4583 38.9508 40.5296C38.844 40.5976 38.7494 40.6981 38.7431 40.813C38.7381 40.9034 38.7387 40.9959 38.7524 41.0867C38.7662 41.1792 38.8 41.2684 38.8333 41.3584C38.887 41.5037 38.981 41.6386 39.0871 41.7661C39.1305 41.815 39.1851 41.853 39.2507 41.8796C39.3122 41.9155 39.381 41.9377 39.4571 41.9457C39.5326 41.9583 39.6052 41.9555 39.6749 41.9375C39.7458 41.9293 39.8093 41.9077 39.8655 41.8723C39.9744 41.803 40.0623 41.7049 40.0732 41.5889C40.0723 41.5499 40.0717 41.5106 40.0709 41.4714Z" fill="white"/>
</g>
<g id="Group_83">
<path id="Vector_83" d="M83.5474 41.2446C83.5342 41.1766 83.5002 41.115 83.4516 41.0575C83.4109 40.9992 83.3813 40.9375 83.354 40.875C83.3381 40.8177 83.3249 40.7605 83.3215 40.7024C83.3251 40.6552 83.3196 40.6086 83.2982 40.5633C83.2842 40.5067 83.2534 40.4553 83.2055 40.4087C83.1621 40.3598 83.1076 40.3219 83.0421 40.2952C82.9807 40.2592 82.9119 40.2371 82.8357 40.2292C82.6927 40.2147 82.5394 40.2313 82.4273 40.3026C82.3206 40.3705 82.226 40.471 82.2197 40.586C82.2147 40.6764 82.2153 40.7689 82.2289 40.8599C82.2428 40.9524 82.2765 41.0413 82.3099 41.1313C82.3636 41.2767 82.4575 41.4115 82.5637 41.5391C82.6071 41.5879 82.6616 41.6257 82.7271 41.6526C82.7885 41.6886 82.8573 41.7107 82.9335 41.7186C83.009 41.7312 83.0816 41.7285 83.1512 41.7104C83.2221 41.7023 83.2857 41.6807 83.3419 41.6454C83.4507 41.5762 83.5386 41.478 83.5495 41.362C83.5489 41.323 83.5483 41.2838 83.5474 41.2446Z" fill="white"/>
</g>
</g>
<g id="Group_84">
<g id="Group_85">
<path id="Vector_84" d="M46.1263 14.8304C46.5191 14.521 46.809 14.125 47.1541 13.7724C47.4905 13.4288 47.8532 13.1089 48.2098 12.7845C48.9175 12.1405 50.0711 13.1035 49.3554 13.7546C48.5393 14.4971 47.8379 15.3628 46.9699 16.0466C46.2114 16.6439 45.3722 15.4242 46.1263 14.8304Z" fill="#FF64F5"/>
</g>
<g id="Group_86">
<path id="Vector_85" d="M60.9055 14.8942C60.5587 14.5391 60.1258 14.2855 59.7359 13.9776C59.3558 13.6774 58.9996 13.3512 58.6386 13.0309C57.9223 12.3954 58.8786 11.2552 59.6027 11.8976C60.4285 12.6305 61.3785 13.2484 62.1447 14.0336C62.8146 14.7197 61.5712 15.5761 60.9055 14.8942Z" fill="#B312FF"/>
</g>
<g id="Group_87">
<path id="Vector_86" d="M56.2705 22.7871C56.7268 23.0051 57.226 23.0993 57.705 23.2587C58.172 23.4141 58.6263 23.6016 59.0827 23.7822C59.9886 24.1405 59.514 25.5253 58.5984 25.163C57.554 24.7498 56.4356 24.4853 55.4277 24.0035C54.5466 23.5827 55.3948 22.3687 56.2705 22.7871Z" fill="#0079D8"/>
</g>
<g id="Group_88">
<path id="Vector_87" d="M57.6052 33.4882C57.1209 33.6424 56.6995 33.9125 56.243 34.1233C55.7981 34.3287 55.3379 34.503 54.8815 34.6836C53.9758 35.0421 53.2677 33.7498 54.1835 33.3873C55.2278 32.9739 56.2122 32.4065 57.2826 32.0659C58.2179 31.768 58.535 33.1922 57.6052 33.4882Z" fill="#FF64F5"/>
</g>
<g id="Group_89">
<path id="Vector_88" d="M71.1885 31.7369C71.6447 31.9549 72.1439 32.049 72.623 32.2085C73.0899 32.3639 73.5443 32.5514 74.0007 32.732C74.9066 33.0903 74.4319 34.4751 73.5164 34.1128C72.472 33.6996 71.3536 33.4351 70.3457 32.9533C69.4645 32.5323 70.3128 31.3183 71.1885 31.7369Z" fill="#B312FF"/>
</g>
<g id="Group_90">
<path id="Vector_89" d="M72.5504 23.0097C72.1122 23.2585 71.7615 23.6077 71.3634 23.906C70.9753 24.1967 70.565 24.4601 70.1602 24.729C69.3564 25.2627 68.3727 24.1438 69.1851 23.6043C70.1118 22.9889 70.9451 22.2353 71.9136 21.6857C72.7599 21.2052 73.3917 22.5323 72.5504 23.0097Z" fill="#FF64F5"/>
</g>
<g id="Group_91">
<path id="Vector_90" d="M31.9993 31.5726C32.4853 31.4231 32.9094 31.1569 33.3681 30.9503C33.8151 30.7491 34.2772 30.5792 34.7353 30.4028C35.6448 30.0527 36.3393 31.3517 35.42 31.7056C34.3714 32.1092 33.3809 32.6673 32.307 32.9979C31.3685 33.2869 31.0665 31.8598 31.9993 31.5726Z" fill="#0079D8"/>
</g>
<g id="Group_92">
<path id="Vector_91" d="M42.4254 26.2846C42.1498 25.8772 41.7706 25.5559 41.4438 25.188C41.1254 24.8293 40.8351 24.4492 40.5391 24.074C39.9518 23.3294 41.1044 22.3655 41.6982 23.1183C42.3755 23.9769 43.1961 24.7431 43.805 25.6432C44.3371 26.4295 42.9544 27.0663 42.4254 26.2846Z" fill="#B312FF"/>
</g>
</g>
</g>
</g>
<g id="Group_93">
<g id="Group_94">
<g id="Group_95">
<g id="Group_96">
<g id="Group_97">
<path id="Vector_92" d="M36.496 46.4724C32.7968 45.69 32.4847 41.4439 32.4819 41.4012L32.6913 41.3879C32.694 41.4293 32.9973 45.518 36.5394 46.2672L36.496 46.4724Z" fill="black"/>
</g>
<g id="Group_98">
<path id="Vector_93" d="M35.1724 49.0923C31.6678 49.0923 30.2897 45.3526 30.2756 45.3134L30.473 45.2429C30.4869 45.2815 31.9042 49.1282 35.5191 48.87L35.5338 49.0793C35.4111 49.0883 35.2907 49.0923 35.1724 49.0923Z" fill="black"/>
</g>
<g id="Group_99">
<path id="Vector_94" d="M33.8768 52.2285C31.0478 52.2285 29.3044 49.5289 29.2844 49.4975L29.4619 49.3853C29.4839 49.4201 31.7088 52.863 35.1785 51.8218L35.2387 52.0225C34.7613 52.166 34.3062 52.2285 33.8768 52.2285Z" fill="black"/>
</g>
</g>
<g id="Group_100">
<g id="Group_101">
<path id="Vector_95" d="M48.133 59.1321C52.5884 56.6653 54.2005 51.0537 51.7337 46.5983C49.2669 42.1428 43.6553 40.5307 39.1999 42.9976C34.7444 45.4644 33.1323 51.076 35.5991 55.5314C38.0659 59.9868 43.6775 61.5989 48.133 59.1321Z" fill="white"/>
<path id="Vector_96" d="M43.6633 60.3901C43.6612 60.3901 43.6593 60.3901 43.6576 60.3901C41.1666 60.3887 38.8253 59.4171 37.0648 57.6547C35.3044 55.8924 34.3359 53.5498 34.3374 51.059C34.3389 48.568 35.3105 46.2267 37.0728 44.4662C38.8339 42.7072 41.1741 41.7388 43.6629 41.7388C43.665 41.7388 43.6669 41.7388 43.6685 41.7388C46.1596 41.7402 48.5009 42.7118 50.2613 44.4742C52.0218 46.2365 52.9902 48.5791 52.9888 51.0699C52.9873 53.561 52.0157 55.9022 50.2534 57.6627C48.4923 59.4217 46.152 60.3901 43.6633 60.3901ZM43.6629 41.9485C41.2299 41.9485 38.9426 42.8951 37.2211 44.6147C35.4982 46.3353 34.5486 48.624 34.5472 51.059C34.5457 53.494 35.4925 55.7837 37.2133 57.5064C38.934 59.2294 41.2226 60.1789 43.6576 60.1804C43.6595 60.1804 43.6616 60.1804 43.6633 60.1804C46.0962 60.1804 48.3836 59.2338 50.1051 57.5142C51.828 55.7936 52.7776 53.5049 52.779 51.0699C52.7805 48.6351 51.8337 46.3452 50.1128 44.6225C48.3922 42.8996 46.1036 41.95 43.6685 41.9485C43.6667 41.9485 43.6648 41.9485 43.6629 41.9485Z" fill="black"/>
</g>
<g id="Group_102">
<path id="Vector_97" d="M43.6675 43.7742C39.7944 43.7719 36.6527 46.9098 36.6504 50.7829C36.6504 50.8777 36.6607 50.9696 36.6644 51.0634L41.6058 51.0885L37.3159 53.7541C38.4337 56.1407 40.8497 57.7984 43.6593 57.8C47.5325 57.8023 50.6742 54.6644 50.6765 50.7913C50.6786 46.9182 47.5406 43.7765 43.6675 43.7742Z" fill="black"/>
<path id="Vector_98" d="M43.6632 57.9048C43.6618 57.9048 43.6605 57.9048 43.659 57.9048C40.9154 57.903 38.3883 56.2912 37.2208 53.7985L37.1812 53.7142L41.241 51.1917L36.5635 51.1677L36.5593 51.0677C36.558 51.0322 36.5555 50.997 36.5532 50.962C36.5492 50.9026 36.5452 50.8432 36.5454 50.7828C36.5465 48.8818 37.2879 47.0947 38.6331 45.7512C39.977 44.4088 41.7635 43.6694 43.663 43.6694C43.6647 43.6694 43.666 43.6694 43.6672 43.6694C45.5684 43.6705 47.3555 44.412 48.6992 45.7571C50.0427 47.1023 50.7821 48.8904 50.7808 50.7914C50.7789 54.7145 47.5861 57.9048 43.6632 57.9048ZM37.4509 53.7937C38.6012 56.1651 41.0279 57.6936 43.6592 57.6953C43.6605 57.6953 43.6624 57.6953 43.6634 57.6953C47.4711 57.6957 50.5694 54.5991 50.5715 50.7914C50.5728 48.9462 49.8552 47.2111 48.5511 45.9054C47.2471 44.5997 45.5128 43.8802 43.6676 43.8792C43.6664 43.8792 43.6645 43.8792 43.6634 43.8792C39.856 43.8792 36.7577 46.9754 36.7554 50.7831C36.7552 50.8388 36.7592 50.893 36.7627 50.9475C36.7629 50.9513 36.7631 50.9553 36.7636 50.959L41.9703 50.9857L37.4509 53.7937Z" fill="black"/>
</g>
</g>
</g>
<g id="Group_103">
<g id="Group_104">
<g id="Group_105">
<path id="Vector_99" d="M74.4502 46.4866L74.4067 46.2813C77.9575 45.5324 78.2583 41.4481 78.261 41.407L78.4703 41.4204C78.4678 41.463 78.1548 45.7051 74.4502 46.4866Z" fill="black"/>
</g>
<g id="Group_106">
<path id="Vector_100" d="M75.7761 49.1039C75.6573 49.1039 75.5372 49.0997 75.4138 49.0909L75.4285 48.8816C79.0484 49.1406 80.4683 45.2971 80.4823 45.2583L80.6797 45.3292C80.6659 45.3682 79.285 49.1039 75.7761 49.1039Z" fill="black"/>
</g>
<g id="Group_107">
<path id="Vector_101" d="M77.0733 52.2365C76.6429 52.2365 76.1877 52.1744 75.7095 52.031L75.7697 51.8302C79.2455 52.871 81.4731 49.4311 81.4951 49.3962L81.6726 49.5085C81.6524 49.5397 79.9062 52.2365 77.0733 52.2365Z" fill="black"/>
</g>
</g>
<g id="Group_108">
<g id="Group_109">
<path id="Vector_102" d="M67.2722 60.2855C72.3725 60.2855 76.5071 56.1613 76.5071 51.0739C76.5071 45.9865 72.3725 41.8623 67.2722 41.8623C62.1719 41.8623 58.0374 45.9865 58.0374 51.0739C58.0374 56.1613 62.1719 60.2855 67.2722 60.2855Z" fill="white"/>
<path id="Vector_103" d="M67.2719 60.3903C62.1245 60.3903 57.9353 56.2147 57.9324 51.0793C57.9294 45.9424 62.1168 41.7605 67.2667 41.7576C67.2686 41.7576 67.2706 41.7576 67.2723 41.7576C72.4197 41.7576 76.6089 45.9329 76.6119 51.0684C76.6133 53.5567 75.6432 55.8971 73.8802 57.6578C72.1172 59.4183 69.7724 60.389 67.2778 60.3903C67.2757 60.3903 67.2738 60.3903 67.2719 60.3903ZM58.1419 51.0793C58.1451 56.0987 62.2405 60.1805 67.2717 60.1805C67.274 60.1805 67.2753 60.1805 67.2774 60.1805C69.716 60.1791 72.0084 59.2303 73.7315 57.5093C75.4551 55.7883 76.4032 53.5009 76.4017 51.0684C76.3985 46.0491 72.3031 41.9673 67.2719 41.9673C67.2696 41.9673 67.2683 41.9673 67.2662 41.9673C62.2323 41.9703 58.1392 46.058 58.1419 51.0793Z" fill="black"/>
</g>
<g id="Group_110">
<path id="Vector_104" d="M67.2677 43.7908C71.1467 43.7885 74.2932 46.9232 74.2956 50.7924C74.2956 50.887 74.2853 50.9789 74.2815 51.0726L69.3326 51.0978L73.6292 53.7606C72.5097 56.1449 70.0902 57.8009 67.2761 57.8026C63.3971 57.8049 60.2506 54.6701 60.2483 50.801C60.246 46.9316 63.3887 43.7931 67.2677 43.7908Z" fill="black"/>
<path id="Vector_105" d="M67.2721 57.9074C63.3429 57.9074 60.1457 54.7206 60.1436 50.8007C60.1423 48.9013 60.8827 47.1153 62.2283 45.7712C63.5739 44.4275 65.3635 43.6866 67.2677 43.6858C67.2689 43.6858 67.2706 43.6858 67.2719 43.6858C71.201 43.6858 74.3983 46.8726 74.4004 50.7923C74.4004 50.8521 74.3964 50.911 74.3924 50.9699C74.3899 51.0054 74.3876 51.041 74.3863 51.0767L74.3821 51.1772L69.6977 51.2009L73.7636 53.7207L73.7239 53.8052C72.5549 56.2954 70.0238 57.9057 67.2763 57.9076C67.2748 57.9074 67.2731 57.9074 67.2721 57.9074ZM67.2719 43.8955C67.2704 43.8955 67.2691 43.8955 67.2677 43.8955C65.4195 43.8966 63.6825 44.6156 62.3766 45.9197C61.0705 47.2239 60.3521 48.9571 60.3533 50.8007C60.3556 54.6046 63.4589 57.6976 67.2721 57.6976C67.2735 57.6976 67.2748 57.6976 67.2763 57.6976C69.9118 57.6959 72.342 56.1691 73.494 53.7999L68.9675 50.9947L74.1824 50.9681C74.1829 50.9639 74.1831 50.9599 74.1835 50.9555C74.1873 50.9013 74.1908 50.8472 74.1908 50.7923C74.1883 46.9886 71.085 43.8955 67.2719 43.8955Z" fill="black"/>
</g>
</g>
</g>
</g>
<g id="Group_111">
<path id="Vector_106" d="M55.5774 58.0251C56.5554 58.0251 57.3483 57.2322 57.3483 56.2541C57.3483 55.276 56.5554 54.4832 55.5774 54.4832C54.5993 54.4832 53.8064 55.276 53.8064 56.2541C53.8064 57.2322 54.5993 58.0251 55.5774 58.0251Z" fill="#FFB000"/>
<path id="Vector_107" d="M55.5773 58.1301C54.5427 58.1301 53.7014 57.2885 53.7014 56.2542C53.7014 55.2197 54.543 54.3782 55.5773 54.3782C56.6116 54.3782 57.4531 55.2199 57.4531 56.2542C57.4531 57.2887 56.6116 58.1301 55.5773 58.1301ZM55.5773 54.5879C54.6585 54.5879 53.9112 55.3355 53.9112 56.2542C53.9112 57.1729 54.6585 57.9203 55.5773 57.9203C56.496 57.9203 57.2433 57.1729 57.2433 56.2542C57.2433 55.3353 56.496 54.5879 55.5773 54.5879Z" fill="black"/>
</g>
<g id="Group_112">
<g id="Group_113">
<path id="Vector_108" d="M60.7123 66.2355C60.706 66.2427 60.6997 66.246 60.6934 66.2532C58.5604 68.0455 55.7241 68.4961 53.1636 67.7531C52.2512 67.489 51.2536 67.0389 50.3762 66.4061C49.0065 65.4255 47.934 63.9991 47.9544 62.1384C47.9779 60.4146 49.1594 59.9205 50.53 59.9041C51.7394 59.8911 53.1003 60.2502 53.937 60.4721C54.6632 60.6588 55.3925 60.7893 56.138 60.7268C57.3411 60.633 58.4281 59.9949 59.6123 59.8378C59.846 59.8063 60.1113 59.7891 60.3924 59.8034C61.2008 59.8321 62.1164 60.0541 62.6433 60.6022C64.2114 62.25 61.91 65.2254 60.7123 66.2355Z" fill="black"/>
<path id="Vector_109" d="M55.5506 68.2C54.7485 68.2 53.9353 68.0861 53.1345 67.8539C52.1331 67.564 51.1317 67.0801 50.3151 66.4911C49.1779 65.6767 47.8266 64.26 47.8499 62.1371C47.8709 60.6065 48.772 59.8201 50.5289 59.7991C50.5507 59.7989 50.5727 59.7987 50.5948 59.7987C51.8071 59.7987 53.1538 60.1557 53.964 60.3707C54.5551 60.5228 55.336 60.6891 56.1291 60.6222C56.7565 60.5733 57.3667 60.3684 57.9571 60.1702C58.4864 59.9925 59.034 59.8088 59.5987 59.7339C59.8691 59.6974 60.1377 59.6852 60.3976 59.6987C60.8706 59.7154 62.0469 59.8304 62.7188 60.5295C63.1213 60.9526 63.3078 61.4858 63.2734 62.115C63.1855 63.7148 61.7025 65.5361 60.7846 66.312L60.771 66.3246C59.3075 67.5544 57.4606 68.2 55.5506 68.2ZM50.5948 60.0083C50.5734 60.0083 50.5524 60.0085 50.5312 60.0087C48.8874 60.0284 48.0787 60.7254 48.0594 62.1396C48.0372 64.1719 49.3402 65.5351 50.4374 66.3208C51.2353 66.8962 52.2136 67.369 53.1928 67.6523C55.8336 68.4182 58.612 67.8652 60.6261 66.1727L60.6447 66.1553C61.6012 65.3486 62.9841 63.5581 63.0638 62.1033C63.0951 61.534 62.9281 61.0533 62.5673 60.6744C61.949 60.0309 60.8377 59.9241 60.3886 59.9082C60.1398 59.8954 59.8844 59.9069 59.6262 59.9418C59.0812 60.0141 58.5436 60.1945 58.0236 60.369C57.4212 60.5712 56.7985 60.7804 56.1459 60.8311C55.3218 60.9012 54.5186 60.73 53.9108 60.5738C53.1097 60.3611 51.7794 60.0083 50.5948 60.0083Z" fill="black"/>
</g>
<g id="Group_114">
<path id="Vector_110" d="M60.7123 66.2356C60.706 66.2428 60.6997 66.2461 60.6934 66.2532C58.5604 68.0456 55.7241 68.4962 53.1636 67.7532C52.2512 67.4891 51.2536 67.039 50.3762 66.4062C51.3912 64.785 53.2996 63.6701 55.5007 63.6332C57.7113 63.5929 59.6526 64.6409 60.7123 66.2356Z" fill="#FF64F5"/>
<path id="Vector_111" d="M55.5506 68.2001C54.7485 68.2001 53.9352 68.0862 53.1344 67.854C52.133 67.5641 51.1317 67.0802 50.3153 66.4912L50.2356 66.4339L50.2876 66.3507C51.3551 64.6458 53.3519 63.5645 55.4992 63.5286C55.5397 63.5278 55.5801 63.5276 55.6204 63.5276C57.7326 63.5276 59.7087 64.5357 60.7997 66.1778L60.8452 66.246L60.7709 66.3245C59.3075 67.5545 57.4606 68.2001 55.5506 68.2001ZM50.5183 66.3786C51.3007 66.9277 52.2461 67.3787 53.1925 67.6524C55.8102 68.4115 58.5631 67.875 60.5729 66.2168C59.49 64.6483 57.565 63.6971 55.5025 63.7382C53.4608 63.7722 51.5608 64.7811 50.5183 66.3786Z" fill="black"/>
</g>
</g>
</g>
</g>
</g>
</svg>
