<svg width="19" height="20" viewBox="0 0 19 20" fill="none" xmlns="http://www.w3.org/2000/svg">
<path d="M6.84105 0.5C6.20711 0.5 5.62736 0.85739 5.34269 1.42366L4.68367 2.73462H2.7949C1.25132 2.73462 0 3.98558 0 5.52874V14.4706C0 16.0137 1.25132 17.2647 2.7949 17.2647H8.49091C8.30987 16.9106 8.16215 16.5367 8.05191 16.1471H2.7949C1.86875 16.1471 1.11796 15.3964 1.11796 14.4706V5.52874C1.11796 4.60285 1.86875 3.85227 2.7949 3.85227H5.02834C5.23966 3.85227 5.43291 3.73314 5.5278 3.54438L6.3416 1.92554C6.43649 1.73678 6.62974 1.61765 6.84105 1.61765H11.0493C11.261 1.61765 11.4546 1.73726 11.5493 1.9266L12.3576 3.54331C12.4523 3.73266 12.6459 3.85227 12.8576 3.85227H15.0924C16.0186 3.85227 16.7693 4.60285 16.7693 5.52874V8.99649C17.1695 9.20142 17.5441 9.44889 17.8873 9.73288V5.52874C17.8873 3.98559 16.6361 2.73462 15.0924 2.73462H13.2032L12.5493 1.42686C12.2652 0.858832 11.6845 0.5 11.0493 0.5H6.84105Z" fill="black"/>
<path d="M8.93834 4.9707C11.0358 4.9707 12.7959 6.41432 13.279 8.3619C12.9021 8.40399 12.5356 8.48013 12.1824 8.58716C11.8046 7.14909 10.4954 6.08835 8.93834 6.08835C7.08604 6.08835 5.58447 7.58952 5.58447 9.44126C5.58447 10.9979 6.64551 12.3068 8.084 12.6844C7.97693 13.0375 7.90078 13.404 7.85868 13.7807C5.91055 13.2979 4.46651 11.5382 4.46651 9.44126C4.46651 6.97225 6.46861 4.9707 8.93834 4.9707Z" fill="black"/>
<path d="M18.9998 14.4706C18.9998 17.2483 16.7475 19.5 13.969 19.5C11.1907 19.5 8.93826 17.2483 8.93826 14.4706C8.93826 11.6929 11.1907 9.44116 13.969 9.44116C16.7475 9.44116 18.9998 11.6929 18.9998 14.4706ZM14.528 12.2353C14.528 11.9267 14.2778 11.6765 13.969 11.6765C13.6604 11.6765 13.4101 11.9267 13.4101 12.2353V13.9118H11.7331C11.4244 13.9118 11.1741 14.162 11.1741 14.4706C11.1741 14.7792 11.4244 15.0294 11.7331 15.0294H13.4101V16.7059C13.4101 17.0145 13.6604 17.2647 13.969 17.2647C14.2778 17.2647 14.528 17.0145 14.528 16.7059V15.0294H16.205C16.5137 15.0294 16.7639 14.7792 16.7639 14.4706C16.7639 14.162 16.5137 13.9118 16.205 13.9118H14.528V12.2353Z" fill="black"/>
</svg>
