<svg width="19" height="20" viewBox="0 0 19 20" fill="none" xmlns="http://www.w3.org/2000/svg">
<path fill-rule="evenodd" clip-rule="evenodd" d="M16.625 1.85714H2.375C2.06006 1.85714 1.75801 2.00013 1.53531 2.25464C1.31261 2.50915 1.1875 2.85435 1.1875 3.21429V15.4286L4.32963 12.2339C4.42668 12.1233 4.5542 12.0546 4.69055 12.0392C4.8269 12.0239 4.9637 12.0629 5.07775 12.1497L8.2365 14.5559L12.6421 9.52093C12.7302 9.42019 12.8437 9.35367 12.9667 9.33077C13.0897 9.30788 13.2158 9.32977 13.3273 9.39336L17.8125 12.0357V3.21429C17.8125 2.85435 17.6874 2.50915 17.4647 2.25464C17.242 2.00013 16.9399 1.85714 16.625 1.85714ZM2.375 0.5C1.74511 0.5 1.14102 0.785969 0.695621 1.295C0.250223 1.80402 0 2.49441 0 3.21429V16.7857C0 17.5056 0.250223 18.196 0.695621 18.705C1.14102 19.214 1.74511 19.5 2.375 19.5H16.625C16.9369 19.5 17.2457 19.4298 17.5339 19.2934C17.822 19.157 18.0838 18.957 18.3044 18.705C18.5249 18.453 18.6999 18.1537 18.8192 17.8244C18.9386 17.4951 19 17.1422 19 16.7857V3.21429C19 2.49441 18.7498 1.80402 18.3044 1.295C17.859 0.785969 17.2549 0.5 16.625 0.5H2.375ZM7.125 6.60714C7.125 6.87448 7.07893 7.13919 6.98941 7.38618C6.89989 7.63316 6.76869 7.85758 6.60328 8.04661C6.43788 8.23564 6.24152 8.38559 6.0254 8.4879C5.80929 8.5902 5.57767 8.64286 5.34375 8.64286C5.10983 8.64286 4.87821 8.5902 4.6621 8.4879C4.44598 8.38559 4.24962 8.23564 4.08422 8.04661C3.91881 7.85758 3.78761 7.63316 3.69809 7.38618C3.60857 7.13919 3.5625 6.87448 3.5625 6.60714C3.5625 6.06724 3.75017 5.54945 4.08422 5.16768C4.41826 4.7859 4.87133 4.57143 5.34375 4.57143C5.81617 4.57143 6.26924 4.7859 6.60328 5.16768C6.93733 5.54945 7.125 6.06724 7.125 6.60714Z" fill="black"/>
</svg>
